%TF.GenerationSoftware,KiCad,Pcbnew,(5.1.7)-1*%
%TF.CreationDate,2020-11-19T07:16:12+01:00*%
%TF.ProjectId,power_distribution_v01,706f7765-725f-4646-9973-747269627574,rev?*%
%TF.SameCoordinates,Original*%
%TF.FileFunction,Soldermask,Top*%
%TF.FilePolarity,Negative*%
%FSLAX46Y46*%
G04 Gerber Fmt 4.6, Leading zero omitted, Abs format (unit mm)*
G04 Created by KiCad (PCBNEW (5.1.7)-1) date 2020-11-19 07:16:12*
%MOMM*%
%LPD*%
G01*
G04 APERTURE LIST*
%ADD10O,1.700000X1.700000*%
%ADD11R,1.700000X1.700000*%
%ADD12R,0.900000X0.800000*%
%ADD13C,6.000000*%
%ADD14C,2.780000*%
%ADD15R,1.200000X0.900000*%
%ADD16R,0.900000X1.200000*%
G04 APERTURE END LIST*
D10*
%TO.C,J102*%
X279650000Y-192540000D03*
D11*
X279650000Y-190000000D03*
%TD*%
D10*
%TO.C,J101*%
X150000000Y-192540000D03*
D11*
X150000000Y-190000000D03*
%TD*%
%TO.C,R44*%
G36*
G01*
X84663000Y-163509000D02*
X84663000Y-162959000D01*
G75*
G02*
X84863000Y-162759000I200000J0D01*
G01*
X85263000Y-162759000D01*
G75*
G02*
X85463000Y-162959000I0J-200000D01*
G01*
X85463000Y-163509000D01*
G75*
G02*
X85263000Y-163709000I-200000J0D01*
G01*
X84863000Y-163709000D01*
G75*
G02*
X84663000Y-163509000I0J200000D01*
G01*
G37*
G36*
G01*
X83013000Y-163509000D02*
X83013000Y-162959000D01*
G75*
G02*
X83213000Y-162759000I200000J0D01*
G01*
X83613000Y-162759000D01*
G75*
G02*
X83813000Y-162959000I0J-200000D01*
G01*
X83813000Y-163509000D01*
G75*
G02*
X83613000Y-163709000I-200000J0D01*
G01*
X83213000Y-163709000D01*
G75*
G02*
X83013000Y-163509000I0J200000D01*
G01*
G37*
%TD*%
%TO.C,R43*%
G36*
G01*
X84663000Y-165033000D02*
X84663000Y-164483000D01*
G75*
G02*
X84863000Y-164283000I200000J0D01*
G01*
X85263000Y-164283000D01*
G75*
G02*
X85463000Y-164483000I0J-200000D01*
G01*
X85463000Y-165033000D01*
G75*
G02*
X85263000Y-165233000I-200000J0D01*
G01*
X84863000Y-165233000D01*
G75*
G02*
X84663000Y-165033000I0J200000D01*
G01*
G37*
G36*
G01*
X83013000Y-165033000D02*
X83013000Y-164483000D01*
G75*
G02*
X83213000Y-164283000I200000J0D01*
G01*
X83613000Y-164283000D01*
G75*
G02*
X83813000Y-164483000I0J-200000D01*
G01*
X83813000Y-165033000D01*
G75*
G02*
X83613000Y-165233000I-200000J0D01*
G01*
X83213000Y-165233000D01*
G75*
G02*
X83013000Y-165033000I0J200000D01*
G01*
G37*
%TD*%
%TO.C,R42*%
G36*
G01*
X97663000Y-163509000D02*
X97663000Y-162959000D01*
G75*
G02*
X97863000Y-162759000I200000J0D01*
G01*
X98263000Y-162759000D01*
G75*
G02*
X98463000Y-162959000I0J-200000D01*
G01*
X98463000Y-163509000D01*
G75*
G02*
X98263000Y-163709000I-200000J0D01*
G01*
X97863000Y-163709000D01*
G75*
G02*
X97663000Y-163509000I0J200000D01*
G01*
G37*
G36*
G01*
X96013000Y-163509000D02*
X96013000Y-162959000D01*
G75*
G02*
X96213000Y-162759000I200000J0D01*
G01*
X96613000Y-162759000D01*
G75*
G02*
X96813000Y-162959000I0J-200000D01*
G01*
X96813000Y-163509000D01*
G75*
G02*
X96613000Y-163709000I-200000J0D01*
G01*
X96213000Y-163709000D01*
G75*
G02*
X96013000Y-163509000I0J200000D01*
G01*
G37*
%TD*%
%TO.C,R41*%
G36*
G01*
X97675000Y-165025000D02*
X97675000Y-164475000D01*
G75*
G02*
X97875000Y-164275000I200000J0D01*
G01*
X98275000Y-164275000D01*
G75*
G02*
X98475000Y-164475000I0J-200000D01*
G01*
X98475000Y-165025000D01*
G75*
G02*
X98275000Y-165225000I-200000J0D01*
G01*
X97875000Y-165225000D01*
G75*
G02*
X97675000Y-165025000I0J200000D01*
G01*
G37*
G36*
G01*
X96025000Y-165025000D02*
X96025000Y-164475000D01*
G75*
G02*
X96225000Y-164275000I200000J0D01*
G01*
X96625000Y-164275000D01*
G75*
G02*
X96825000Y-164475000I0J-200000D01*
G01*
X96825000Y-165025000D01*
G75*
G02*
X96625000Y-165225000I-200000J0D01*
G01*
X96225000Y-165225000D01*
G75*
G02*
X96025000Y-165025000I0J200000D01*
G01*
G37*
%TD*%
%TO.C,R40*%
G36*
G01*
X110663000Y-163509000D02*
X110663000Y-162959000D01*
G75*
G02*
X110863000Y-162759000I200000J0D01*
G01*
X111263000Y-162759000D01*
G75*
G02*
X111463000Y-162959000I0J-200000D01*
G01*
X111463000Y-163509000D01*
G75*
G02*
X111263000Y-163709000I-200000J0D01*
G01*
X110863000Y-163709000D01*
G75*
G02*
X110663000Y-163509000I0J200000D01*
G01*
G37*
G36*
G01*
X109013000Y-163509000D02*
X109013000Y-162959000D01*
G75*
G02*
X109213000Y-162759000I200000J0D01*
G01*
X109613000Y-162759000D01*
G75*
G02*
X109813000Y-162959000I0J-200000D01*
G01*
X109813000Y-163509000D01*
G75*
G02*
X109613000Y-163709000I-200000J0D01*
G01*
X109213000Y-163709000D01*
G75*
G02*
X109013000Y-163509000I0J200000D01*
G01*
G37*
%TD*%
%TO.C,R39*%
G36*
G01*
X110663000Y-165033000D02*
X110663000Y-164483000D01*
G75*
G02*
X110863000Y-164283000I200000J0D01*
G01*
X111263000Y-164283000D01*
G75*
G02*
X111463000Y-164483000I0J-200000D01*
G01*
X111463000Y-165033000D01*
G75*
G02*
X111263000Y-165233000I-200000J0D01*
G01*
X110863000Y-165233000D01*
G75*
G02*
X110663000Y-165033000I0J200000D01*
G01*
G37*
G36*
G01*
X109013000Y-165033000D02*
X109013000Y-164483000D01*
G75*
G02*
X109213000Y-164283000I200000J0D01*
G01*
X109613000Y-164283000D01*
G75*
G02*
X109813000Y-164483000I0J-200000D01*
G01*
X109813000Y-165033000D01*
G75*
G02*
X109613000Y-165233000I-200000J0D01*
G01*
X109213000Y-165233000D01*
G75*
G02*
X109013000Y-165033000I0J200000D01*
G01*
G37*
%TD*%
%TO.C,R38*%
G36*
G01*
X123663000Y-163509000D02*
X123663000Y-162959000D01*
G75*
G02*
X123863000Y-162759000I200000J0D01*
G01*
X124263000Y-162759000D01*
G75*
G02*
X124463000Y-162959000I0J-200000D01*
G01*
X124463000Y-163509000D01*
G75*
G02*
X124263000Y-163709000I-200000J0D01*
G01*
X123863000Y-163709000D01*
G75*
G02*
X123663000Y-163509000I0J200000D01*
G01*
G37*
G36*
G01*
X122013000Y-163509000D02*
X122013000Y-162959000D01*
G75*
G02*
X122213000Y-162759000I200000J0D01*
G01*
X122613000Y-162759000D01*
G75*
G02*
X122813000Y-162959000I0J-200000D01*
G01*
X122813000Y-163509000D01*
G75*
G02*
X122613000Y-163709000I-200000J0D01*
G01*
X122213000Y-163709000D01*
G75*
G02*
X122013000Y-163509000I0J200000D01*
G01*
G37*
%TD*%
%TO.C,R37*%
G36*
G01*
X123663000Y-165033000D02*
X123663000Y-164483000D01*
G75*
G02*
X123863000Y-164283000I200000J0D01*
G01*
X124263000Y-164283000D01*
G75*
G02*
X124463000Y-164483000I0J-200000D01*
G01*
X124463000Y-165033000D01*
G75*
G02*
X124263000Y-165233000I-200000J0D01*
G01*
X123863000Y-165233000D01*
G75*
G02*
X123663000Y-165033000I0J200000D01*
G01*
G37*
G36*
G01*
X122013000Y-165033000D02*
X122013000Y-164483000D01*
G75*
G02*
X122213000Y-164283000I200000J0D01*
G01*
X122613000Y-164283000D01*
G75*
G02*
X122813000Y-164483000I0J-200000D01*
G01*
X122813000Y-165033000D01*
G75*
G02*
X122613000Y-165233000I-200000J0D01*
G01*
X122213000Y-165233000D01*
G75*
G02*
X122013000Y-165033000I0J200000D01*
G01*
G37*
%TD*%
%TO.C,R36*%
G36*
G01*
X136663000Y-163509000D02*
X136663000Y-162959000D01*
G75*
G02*
X136863000Y-162759000I200000J0D01*
G01*
X137263000Y-162759000D01*
G75*
G02*
X137463000Y-162959000I0J-200000D01*
G01*
X137463000Y-163509000D01*
G75*
G02*
X137263000Y-163709000I-200000J0D01*
G01*
X136863000Y-163709000D01*
G75*
G02*
X136663000Y-163509000I0J200000D01*
G01*
G37*
G36*
G01*
X135013000Y-163509000D02*
X135013000Y-162959000D01*
G75*
G02*
X135213000Y-162759000I200000J0D01*
G01*
X135613000Y-162759000D01*
G75*
G02*
X135813000Y-162959000I0J-200000D01*
G01*
X135813000Y-163509000D01*
G75*
G02*
X135613000Y-163709000I-200000J0D01*
G01*
X135213000Y-163709000D01*
G75*
G02*
X135013000Y-163509000I0J200000D01*
G01*
G37*
%TD*%
%TO.C,R35*%
G36*
G01*
X136663001Y-165033000D02*
X136663001Y-164483000D01*
G75*
G02*
X136863001Y-164283000I200000J0D01*
G01*
X137263001Y-164283000D01*
G75*
G02*
X137463001Y-164483000I0J-200000D01*
G01*
X137463001Y-165033000D01*
G75*
G02*
X137263001Y-165233000I-200000J0D01*
G01*
X136863001Y-165233000D01*
G75*
G02*
X136663001Y-165033000I0J200000D01*
G01*
G37*
G36*
G01*
X135013001Y-165033000D02*
X135013001Y-164483000D01*
G75*
G02*
X135213001Y-164283000I200000J0D01*
G01*
X135613001Y-164283000D01*
G75*
G02*
X135813001Y-164483000I0J-200000D01*
G01*
X135813001Y-165033000D01*
G75*
G02*
X135613001Y-165233000I-200000J0D01*
G01*
X135213001Y-165233000D01*
G75*
G02*
X135013001Y-165033000I0J200000D01*
G01*
G37*
%TD*%
%TO.C,R34*%
G36*
G01*
X149663000Y-163509000D02*
X149663000Y-162959000D01*
G75*
G02*
X149863000Y-162759000I200000J0D01*
G01*
X150263000Y-162759000D01*
G75*
G02*
X150463000Y-162959000I0J-200000D01*
G01*
X150463000Y-163509000D01*
G75*
G02*
X150263000Y-163709000I-200000J0D01*
G01*
X149863000Y-163709000D01*
G75*
G02*
X149663000Y-163509000I0J200000D01*
G01*
G37*
G36*
G01*
X148013000Y-163509000D02*
X148013000Y-162959000D01*
G75*
G02*
X148213000Y-162759000I200000J0D01*
G01*
X148613000Y-162759000D01*
G75*
G02*
X148813000Y-162959000I0J-200000D01*
G01*
X148813000Y-163509000D01*
G75*
G02*
X148613000Y-163709000I-200000J0D01*
G01*
X148213000Y-163709000D01*
G75*
G02*
X148013000Y-163509000I0J200000D01*
G01*
G37*
%TD*%
%TO.C,R33*%
G36*
G01*
X149663000Y-165033000D02*
X149663000Y-164483000D01*
G75*
G02*
X149863000Y-164283000I200000J0D01*
G01*
X150263000Y-164283000D01*
G75*
G02*
X150463000Y-164483000I0J-200000D01*
G01*
X150463000Y-165033000D01*
G75*
G02*
X150263000Y-165233000I-200000J0D01*
G01*
X149863000Y-165233000D01*
G75*
G02*
X149663000Y-165033000I0J200000D01*
G01*
G37*
G36*
G01*
X148013000Y-165033000D02*
X148013000Y-164483000D01*
G75*
G02*
X148213000Y-164283000I200000J0D01*
G01*
X148613000Y-164283000D01*
G75*
G02*
X148813000Y-164483000I0J-200000D01*
G01*
X148813000Y-165033000D01*
G75*
G02*
X148613000Y-165233000I-200000J0D01*
G01*
X148213000Y-165233000D01*
G75*
G02*
X148013000Y-165033000I0J200000D01*
G01*
G37*
%TD*%
%TO.C,R32*%
G36*
G01*
X162663000Y-163509000D02*
X162663000Y-162959000D01*
G75*
G02*
X162863000Y-162759000I200000J0D01*
G01*
X163263000Y-162759000D01*
G75*
G02*
X163463000Y-162959000I0J-200000D01*
G01*
X163463000Y-163509000D01*
G75*
G02*
X163263000Y-163709000I-200000J0D01*
G01*
X162863000Y-163709000D01*
G75*
G02*
X162663000Y-163509000I0J200000D01*
G01*
G37*
G36*
G01*
X161013000Y-163509000D02*
X161013000Y-162959000D01*
G75*
G02*
X161213000Y-162759000I200000J0D01*
G01*
X161613000Y-162759000D01*
G75*
G02*
X161813000Y-162959000I0J-200000D01*
G01*
X161813000Y-163509000D01*
G75*
G02*
X161613000Y-163709000I-200000J0D01*
G01*
X161213000Y-163709000D01*
G75*
G02*
X161013000Y-163509000I0J200000D01*
G01*
G37*
%TD*%
%TO.C,R31*%
G36*
G01*
X162663000Y-165033000D02*
X162663000Y-164483000D01*
G75*
G02*
X162863000Y-164283000I200000J0D01*
G01*
X163263000Y-164283000D01*
G75*
G02*
X163463000Y-164483000I0J-200000D01*
G01*
X163463000Y-165033000D01*
G75*
G02*
X163263000Y-165233000I-200000J0D01*
G01*
X162863000Y-165233000D01*
G75*
G02*
X162663000Y-165033000I0J200000D01*
G01*
G37*
G36*
G01*
X161013000Y-165033000D02*
X161013000Y-164483000D01*
G75*
G02*
X161213000Y-164283000I200000J0D01*
G01*
X161613000Y-164283000D01*
G75*
G02*
X161813000Y-164483000I0J-200000D01*
G01*
X161813000Y-165033000D01*
G75*
G02*
X161613000Y-165233000I-200000J0D01*
G01*
X161213000Y-165233000D01*
G75*
G02*
X161013000Y-165033000I0J200000D01*
G01*
G37*
%TD*%
%TO.C,R30*%
G36*
G01*
X175663000Y-163509000D02*
X175663000Y-162959000D01*
G75*
G02*
X175863000Y-162759000I200000J0D01*
G01*
X176263000Y-162759000D01*
G75*
G02*
X176463000Y-162959000I0J-200000D01*
G01*
X176463000Y-163509000D01*
G75*
G02*
X176263000Y-163709000I-200000J0D01*
G01*
X175863000Y-163709000D01*
G75*
G02*
X175663000Y-163509000I0J200000D01*
G01*
G37*
G36*
G01*
X174013000Y-163509000D02*
X174013000Y-162959000D01*
G75*
G02*
X174213000Y-162759000I200000J0D01*
G01*
X174613000Y-162759000D01*
G75*
G02*
X174813000Y-162959000I0J-200000D01*
G01*
X174813000Y-163509000D01*
G75*
G02*
X174613000Y-163709000I-200000J0D01*
G01*
X174213000Y-163709000D01*
G75*
G02*
X174013000Y-163509000I0J200000D01*
G01*
G37*
%TD*%
%TO.C,R29*%
G36*
G01*
X175663000Y-165033000D02*
X175663000Y-164483000D01*
G75*
G02*
X175863000Y-164283000I200000J0D01*
G01*
X176263000Y-164283000D01*
G75*
G02*
X176463000Y-164483000I0J-200000D01*
G01*
X176463000Y-165033000D01*
G75*
G02*
X176263000Y-165233000I-200000J0D01*
G01*
X175863000Y-165233000D01*
G75*
G02*
X175663000Y-165033000I0J200000D01*
G01*
G37*
G36*
G01*
X174013000Y-165033000D02*
X174013000Y-164483000D01*
G75*
G02*
X174213000Y-164283000I200000J0D01*
G01*
X174613000Y-164283000D01*
G75*
G02*
X174813000Y-164483000I0J-200000D01*
G01*
X174813000Y-165033000D01*
G75*
G02*
X174613000Y-165233000I-200000J0D01*
G01*
X174213000Y-165233000D01*
G75*
G02*
X174013000Y-165033000I0J200000D01*
G01*
G37*
%TD*%
%TO.C,R28*%
G36*
G01*
X188663000Y-163509000D02*
X188663000Y-162959000D01*
G75*
G02*
X188863000Y-162759000I200000J0D01*
G01*
X189263000Y-162759000D01*
G75*
G02*
X189463000Y-162959000I0J-200000D01*
G01*
X189463000Y-163509000D01*
G75*
G02*
X189263000Y-163709000I-200000J0D01*
G01*
X188863000Y-163709000D01*
G75*
G02*
X188663000Y-163509000I0J200000D01*
G01*
G37*
G36*
G01*
X187013000Y-163509000D02*
X187013000Y-162959000D01*
G75*
G02*
X187213000Y-162759000I200000J0D01*
G01*
X187613000Y-162759000D01*
G75*
G02*
X187813000Y-162959000I0J-200000D01*
G01*
X187813000Y-163509000D01*
G75*
G02*
X187613000Y-163709000I-200000J0D01*
G01*
X187213000Y-163709000D01*
G75*
G02*
X187013000Y-163509000I0J200000D01*
G01*
G37*
%TD*%
%TO.C,R27*%
G36*
G01*
X188663000Y-165033000D02*
X188663000Y-164483000D01*
G75*
G02*
X188863000Y-164283000I200000J0D01*
G01*
X189263000Y-164283000D01*
G75*
G02*
X189463000Y-164483000I0J-200000D01*
G01*
X189463000Y-165033000D01*
G75*
G02*
X189263000Y-165233000I-200000J0D01*
G01*
X188863000Y-165233000D01*
G75*
G02*
X188663000Y-165033000I0J200000D01*
G01*
G37*
G36*
G01*
X187013000Y-165033000D02*
X187013000Y-164483000D01*
G75*
G02*
X187213000Y-164283000I200000J0D01*
G01*
X187613000Y-164283000D01*
G75*
G02*
X187813000Y-164483000I0J-200000D01*
G01*
X187813000Y-165033000D01*
G75*
G02*
X187613000Y-165233000I-200000J0D01*
G01*
X187213000Y-165233000D01*
G75*
G02*
X187013000Y-165033000I0J200000D01*
G01*
G37*
%TD*%
%TO.C,R26*%
G36*
G01*
X201663000Y-163509000D02*
X201663000Y-162959000D01*
G75*
G02*
X201863000Y-162759000I200000J0D01*
G01*
X202263000Y-162759000D01*
G75*
G02*
X202463000Y-162959000I0J-200000D01*
G01*
X202463000Y-163509000D01*
G75*
G02*
X202263000Y-163709000I-200000J0D01*
G01*
X201863000Y-163709000D01*
G75*
G02*
X201663000Y-163509000I0J200000D01*
G01*
G37*
G36*
G01*
X200013000Y-163509000D02*
X200013000Y-162959000D01*
G75*
G02*
X200213000Y-162759000I200000J0D01*
G01*
X200613000Y-162759000D01*
G75*
G02*
X200813000Y-162959000I0J-200000D01*
G01*
X200813000Y-163509000D01*
G75*
G02*
X200613000Y-163709000I-200000J0D01*
G01*
X200213000Y-163709000D01*
G75*
G02*
X200013000Y-163509000I0J200000D01*
G01*
G37*
%TD*%
%TO.C,R25*%
G36*
G01*
X201663000Y-165033000D02*
X201663000Y-164483000D01*
G75*
G02*
X201863000Y-164283000I200000J0D01*
G01*
X202263000Y-164283000D01*
G75*
G02*
X202463000Y-164483000I0J-200000D01*
G01*
X202463000Y-165033000D01*
G75*
G02*
X202263000Y-165233000I-200000J0D01*
G01*
X201863000Y-165233000D01*
G75*
G02*
X201663000Y-165033000I0J200000D01*
G01*
G37*
G36*
G01*
X200013000Y-165033000D02*
X200013000Y-164483000D01*
G75*
G02*
X200213000Y-164283000I200000J0D01*
G01*
X200613000Y-164283000D01*
G75*
G02*
X200813000Y-164483000I0J-200000D01*
G01*
X200813000Y-165033000D01*
G75*
G02*
X200613000Y-165233000I-200000J0D01*
G01*
X200213000Y-165233000D01*
G75*
G02*
X200013000Y-165033000I0J200000D01*
G01*
G37*
%TD*%
%TO.C,R24*%
G36*
G01*
X214663000Y-163509000D02*
X214663000Y-162959000D01*
G75*
G02*
X214863000Y-162759000I200000J0D01*
G01*
X215263000Y-162759000D01*
G75*
G02*
X215463000Y-162959000I0J-200000D01*
G01*
X215463000Y-163509000D01*
G75*
G02*
X215263000Y-163709000I-200000J0D01*
G01*
X214863000Y-163709000D01*
G75*
G02*
X214663000Y-163509000I0J200000D01*
G01*
G37*
G36*
G01*
X213013000Y-163509000D02*
X213013000Y-162959000D01*
G75*
G02*
X213213000Y-162759000I200000J0D01*
G01*
X213613000Y-162759000D01*
G75*
G02*
X213813000Y-162959000I0J-200000D01*
G01*
X213813000Y-163509000D01*
G75*
G02*
X213613000Y-163709000I-200000J0D01*
G01*
X213213000Y-163709000D01*
G75*
G02*
X213013000Y-163509000I0J200000D01*
G01*
G37*
%TD*%
%TO.C,R23*%
G36*
G01*
X214663001Y-165033000D02*
X214663001Y-164483000D01*
G75*
G02*
X214863001Y-164283000I200000J0D01*
G01*
X215263001Y-164283000D01*
G75*
G02*
X215463001Y-164483000I0J-200000D01*
G01*
X215463001Y-165033000D01*
G75*
G02*
X215263001Y-165233000I-200000J0D01*
G01*
X214863001Y-165233000D01*
G75*
G02*
X214663001Y-165033000I0J200000D01*
G01*
G37*
G36*
G01*
X213013001Y-165033000D02*
X213013001Y-164483000D01*
G75*
G02*
X213213001Y-164283000I200000J0D01*
G01*
X213613001Y-164283000D01*
G75*
G02*
X213813001Y-164483000I0J-200000D01*
G01*
X213813001Y-165033000D01*
G75*
G02*
X213613001Y-165233000I-200000J0D01*
G01*
X213213001Y-165233000D01*
G75*
G02*
X213013001Y-165033000I0J200000D01*
G01*
G37*
%TD*%
%TO.C,R22*%
G36*
G01*
X227663000Y-163509000D02*
X227663000Y-162959000D01*
G75*
G02*
X227863000Y-162759000I200000J0D01*
G01*
X228263000Y-162759000D01*
G75*
G02*
X228463000Y-162959000I0J-200000D01*
G01*
X228463000Y-163509000D01*
G75*
G02*
X228263000Y-163709000I-200000J0D01*
G01*
X227863000Y-163709000D01*
G75*
G02*
X227663000Y-163509000I0J200000D01*
G01*
G37*
G36*
G01*
X226013000Y-163509000D02*
X226013000Y-162959000D01*
G75*
G02*
X226213000Y-162759000I200000J0D01*
G01*
X226613000Y-162759000D01*
G75*
G02*
X226813000Y-162959000I0J-200000D01*
G01*
X226813000Y-163509000D01*
G75*
G02*
X226613000Y-163709000I-200000J0D01*
G01*
X226213000Y-163709000D01*
G75*
G02*
X226013000Y-163509000I0J200000D01*
G01*
G37*
%TD*%
%TO.C,R21*%
G36*
G01*
X227663000Y-165033000D02*
X227663000Y-164483000D01*
G75*
G02*
X227863000Y-164283000I200000J0D01*
G01*
X228263000Y-164283000D01*
G75*
G02*
X228463000Y-164483000I0J-200000D01*
G01*
X228463000Y-165033000D01*
G75*
G02*
X228263000Y-165233000I-200000J0D01*
G01*
X227863000Y-165233000D01*
G75*
G02*
X227663000Y-165033000I0J200000D01*
G01*
G37*
G36*
G01*
X226013000Y-165033000D02*
X226013000Y-164483000D01*
G75*
G02*
X226213000Y-164283000I200000J0D01*
G01*
X226613000Y-164283000D01*
G75*
G02*
X226813000Y-164483000I0J-200000D01*
G01*
X226813000Y-165033000D01*
G75*
G02*
X226613000Y-165233000I-200000J0D01*
G01*
X226213000Y-165233000D01*
G75*
G02*
X226013000Y-165033000I0J200000D01*
G01*
G37*
%TD*%
%TO.C,R20*%
G36*
G01*
X240663000Y-163509000D02*
X240663000Y-162959000D01*
G75*
G02*
X240863000Y-162759000I200000J0D01*
G01*
X241263000Y-162759000D01*
G75*
G02*
X241463000Y-162959000I0J-200000D01*
G01*
X241463000Y-163509000D01*
G75*
G02*
X241263000Y-163709000I-200000J0D01*
G01*
X240863000Y-163709000D01*
G75*
G02*
X240663000Y-163509000I0J200000D01*
G01*
G37*
G36*
G01*
X239013000Y-163509000D02*
X239013000Y-162959000D01*
G75*
G02*
X239213000Y-162759000I200000J0D01*
G01*
X239613000Y-162759000D01*
G75*
G02*
X239813000Y-162959000I0J-200000D01*
G01*
X239813000Y-163509000D01*
G75*
G02*
X239613000Y-163709000I-200000J0D01*
G01*
X239213000Y-163709000D01*
G75*
G02*
X239013000Y-163509000I0J200000D01*
G01*
G37*
%TD*%
%TO.C,R19*%
G36*
G01*
X240663000Y-165033000D02*
X240663000Y-164483000D01*
G75*
G02*
X240863000Y-164283000I200000J0D01*
G01*
X241263000Y-164283000D01*
G75*
G02*
X241463000Y-164483000I0J-200000D01*
G01*
X241463000Y-165033000D01*
G75*
G02*
X241263000Y-165233000I-200000J0D01*
G01*
X240863000Y-165233000D01*
G75*
G02*
X240663000Y-165033000I0J200000D01*
G01*
G37*
G36*
G01*
X239013000Y-165033000D02*
X239013000Y-164483000D01*
G75*
G02*
X239213000Y-164283000I200000J0D01*
G01*
X239613000Y-164283000D01*
G75*
G02*
X239813000Y-164483000I0J-200000D01*
G01*
X239813000Y-165033000D01*
G75*
G02*
X239613000Y-165233000I-200000J0D01*
G01*
X239213000Y-165233000D01*
G75*
G02*
X239013000Y-165033000I0J200000D01*
G01*
G37*
%TD*%
%TO.C,R18*%
G36*
G01*
X253663000Y-163509000D02*
X253663000Y-162959000D01*
G75*
G02*
X253863000Y-162759000I200000J0D01*
G01*
X254263000Y-162759000D01*
G75*
G02*
X254463000Y-162959000I0J-200000D01*
G01*
X254463000Y-163509000D01*
G75*
G02*
X254263000Y-163709000I-200000J0D01*
G01*
X253863000Y-163709000D01*
G75*
G02*
X253663000Y-163509000I0J200000D01*
G01*
G37*
G36*
G01*
X252013000Y-163509000D02*
X252013000Y-162959000D01*
G75*
G02*
X252213000Y-162759000I200000J0D01*
G01*
X252613000Y-162759000D01*
G75*
G02*
X252813000Y-162959000I0J-200000D01*
G01*
X252813000Y-163509000D01*
G75*
G02*
X252613000Y-163709000I-200000J0D01*
G01*
X252213000Y-163709000D01*
G75*
G02*
X252013000Y-163509000I0J200000D01*
G01*
G37*
%TD*%
%TO.C,R17*%
G36*
G01*
X253663000Y-165033000D02*
X253663000Y-164483000D01*
G75*
G02*
X253863000Y-164283000I200000J0D01*
G01*
X254263000Y-164283000D01*
G75*
G02*
X254463000Y-164483000I0J-200000D01*
G01*
X254463000Y-165033000D01*
G75*
G02*
X254263000Y-165233000I-200000J0D01*
G01*
X253863000Y-165233000D01*
G75*
G02*
X253663000Y-165033000I0J200000D01*
G01*
G37*
G36*
G01*
X252013000Y-165033000D02*
X252013000Y-164483000D01*
G75*
G02*
X252213000Y-164283000I200000J0D01*
G01*
X252613000Y-164283000D01*
G75*
G02*
X252813000Y-164483000I0J-200000D01*
G01*
X252813000Y-165033000D01*
G75*
G02*
X252613000Y-165233000I-200000J0D01*
G01*
X252213000Y-165233000D01*
G75*
G02*
X252013000Y-165033000I0J200000D01*
G01*
G37*
%TD*%
%TO.C,R16*%
G36*
G01*
X266663000Y-163509000D02*
X266663000Y-162959000D01*
G75*
G02*
X266863000Y-162759000I200000J0D01*
G01*
X267263000Y-162759000D01*
G75*
G02*
X267463000Y-162959000I0J-200000D01*
G01*
X267463000Y-163509000D01*
G75*
G02*
X267263000Y-163709000I-200000J0D01*
G01*
X266863000Y-163709000D01*
G75*
G02*
X266663000Y-163509000I0J200000D01*
G01*
G37*
G36*
G01*
X265013000Y-163509000D02*
X265013000Y-162959000D01*
G75*
G02*
X265213000Y-162759000I200000J0D01*
G01*
X265613000Y-162759000D01*
G75*
G02*
X265813000Y-162959000I0J-200000D01*
G01*
X265813000Y-163509000D01*
G75*
G02*
X265613000Y-163709000I-200000J0D01*
G01*
X265213000Y-163709000D01*
G75*
G02*
X265013000Y-163509000I0J200000D01*
G01*
G37*
%TD*%
%TO.C,R15*%
G36*
G01*
X266663000Y-165033000D02*
X266663000Y-164483000D01*
G75*
G02*
X266863000Y-164283000I200000J0D01*
G01*
X267263000Y-164283000D01*
G75*
G02*
X267463000Y-164483000I0J-200000D01*
G01*
X267463000Y-165033000D01*
G75*
G02*
X267263000Y-165233000I-200000J0D01*
G01*
X266863000Y-165233000D01*
G75*
G02*
X266663000Y-165033000I0J200000D01*
G01*
G37*
G36*
G01*
X265013000Y-165033000D02*
X265013000Y-164483000D01*
G75*
G02*
X265213000Y-164283000I200000J0D01*
G01*
X265613000Y-164283000D01*
G75*
G02*
X265813000Y-164483000I0J-200000D01*
G01*
X265813000Y-165033000D01*
G75*
G02*
X265613000Y-165233000I-200000J0D01*
G01*
X265213000Y-165233000D01*
G75*
G02*
X265013000Y-165033000I0J200000D01*
G01*
G37*
%TD*%
%TO.C,R14*%
G36*
G01*
X279663000Y-163509000D02*
X279663000Y-162959000D01*
G75*
G02*
X279863000Y-162759000I200000J0D01*
G01*
X280263000Y-162759000D01*
G75*
G02*
X280463000Y-162959000I0J-200000D01*
G01*
X280463000Y-163509000D01*
G75*
G02*
X280263000Y-163709000I-200000J0D01*
G01*
X279863000Y-163709000D01*
G75*
G02*
X279663000Y-163509000I0J200000D01*
G01*
G37*
G36*
G01*
X278013000Y-163509000D02*
X278013000Y-162959000D01*
G75*
G02*
X278213000Y-162759000I200000J0D01*
G01*
X278613000Y-162759000D01*
G75*
G02*
X278813000Y-162959000I0J-200000D01*
G01*
X278813000Y-163509000D01*
G75*
G02*
X278613000Y-163709000I-200000J0D01*
G01*
X278213000Y-163709000D01*
G75*
G02*
X278013000Y-163509000I0J200000D01*
G01*
G37*
%TD*%
%TO.C,R13*%
G36*
G01*
X279663000Y-165033000D02*
X279663000Y-164483000D01*
G75*
G02*
X279863000Y-164283000I200000J0D01*
G01*
X280263000Y-164283000D01*
G75*
G02*
X280463000Y-164483000I0J-200000D01*
G01*
X280463000Y-165033000D01*
G75*
G02*
X280263000Y-165233000I-200000J0D01*
G01*
X279863000Y-165233000D01*
G75*
G02*
X279663000Y-165033000I0J200000D01*
G01*
G37*
G36*
G01*
X278013000Y-165033000D02*
X278013000Y-164483000D01*
G75*
G02*
X278213000Y-164283000I200000J0D01*
G01*
X278613000Y-164283000D01*
G75*
G02*
X278813000Y-164483000I0J-200000D01*
G01*
X278813000Y-165033000D01*
G75*
G02*
X278613000Y-165233000I-200000J0D01*
G01*
X278213000Y-165233000D01*
G75*
G02*
X278013000Y-165033000I0J200000D01*
G01*
G37*
%TD*%
%TO.C,R12*%
G36*
G01*
X292663000Y-163509000D02*
X292663000Y-162959000D01*
G75*
G02*
X292863000Y-162759000I200000J0D01*
G01*
X293263000Y-162759000D01*
G75*
G02*
X293463000Y-162959000I0J-200000D01*
G01*
X293463000Y-163509000D01*
G75*
G02*
X293263000Y-163709000I-200000J0D01*
G01*
X292863000Y-163709000D01*
G75*
G02*
X292663000Y-163509000I0J200000D01*
G01*
G37*
G36*
G01*
X291013000Y-163509000D02*
X291013000Y-162959000D01*
G75*
G02*
X291213000Y-162759000I200000J0D01*
G01*
X291613000Y-162759000D01*
G75*
G02*
X291813000Y-162959000I0J-200000D01*
G01*
X291813000Y-163509000D01*
G75*
G02*
X291613000Y-163709000I-200000J0D01*
G01*
X291213000Y-163709000D01*
G75*
G02*
X291013000Y-163509000I0J200000D01*
G01*
G37*
%TD*%
%TO.C,R11*%
G36*
G01*
X292663000Y-165033000D02*
X292663000Y-164483000D01*
G75*
G02*
X292863000Y-164283000I200000J0D01*
G01*
X293263000Y-164283000D01*
G75*
G02*
X293463000Y-164483000I0J-200000D01*
G01*
X293463000Y-165033000D01*
G75*
G02*
X293263000Y-165233000I-200000J0D01*
G01*
X292863000Y-165233000D01*
G75*
G02*
X292663000Y-165033000I0J200000D01*
G01*
G37*
G36*
G01*
X291013000Y-165033000D02*
X291013000Y-164483000D01*
G75*
G02*
X291213000Y-164283000I200000J0D01*
G01*
X291613000Y-164283000D01*
G75*
G02*
X291813000Y-164483000I0J-200000D01*
G01*
X291813000Y-165033000D01*
G75*
G02*
X291613000Y-165233000I-200000J0D01*
G01*
X291213000Y-165233000D01*
G75*
G02*
X291013000Y-165033000I0J200000D01*
G01*
G37*
%TD*%
%TO.C,R10*%
G36*
G01*
X305663000Y-163509000D02*
X305663000Y-162959000D01*
G75*
G02*
X305863000Y-162759000I200000J0D01*
G01*
X306263000Y-162759000D01*
G75*
G02*
X306463000Y-162959000I0J-200000D01*
G01*
X306463000Y-163509000D01*
G75*
G02*
X306263000Y-163709000I-200000J0D01*
G01*
X305863000Y-163709000D01*
G75*
G02*
X305663000Y-163509000I0J200000D01*
G01*
G37*
G36*
G01*
X304013000Y-163509000D02*
X304013000Y-162959000D01*
G75*
G02*
X304213000Y-162759000I200000J0D01*
G01*
X304613000Y-162759000D01*
G75*
G02*
X304813000Y-162959000I0J-200000D01*
G01*
X304813000Y-163509000D01*
G75*
G02*
X304613000Y-163709000I-200000J0D01*
G01*
X304213000Y-163709000D01*
G75*
G02*
X304013000Y-163509000I0J200000D01*
G01*
G37*
%TD*%
%TO.C,R9*%
G36*
G01*
X305663000Y-165033000D02*
X305663000Y-164483000D01*
G75*
G02*
X305863000Y-164283000I200000J0D01*
G01*
X306263000Y-164283000D01*
G75*
G02*
X306463000Y-164483000I0J-200000D01*
G01*
X306463000Y-165033000D01*
G75*
G02*
X306263000Y-165233000I-200000J0D01*
G01*
X305863000Y-165233000D01*
G75*
G02*
X305663000Y-165033000I0J200000D01*
G01*
G37*
G36*
G01*
X304013000Y-165033000D02*
X304013000Y-164483000D01*
G75*
G02*
X304213000Y-164283000I200000J0D01*
G01*
X304613000Y-164283000D01*
G75*
G02*
X304813000Y-164483000I0J-200000D01*
G01*
X304813000Y-165033000D01*
G75*
G02*
X304613000Y-165233000I-200000J0D01*
G01*
X304213000Y-165233000D01*
G75*
G02*
X304013000Y-165033000I0J200000D01*
G01*
G37*
%TD*%
%TO.C,R8*%
G36*
G01*
X318663000Y-163509000D02*
X318663000Y-162959000D01*
G75*
G02*
X318863000Y-162759000I200000J0D01*
G01*
X319263000Y-162759000D01*
G75*
G02*
X319463000Y-162959000I0J-200000D01*
G01*
X319463000Y-163509000D01*
G75*
G02*
X319263000Y-163709000I-200000J0D01*
G01*
X318863000Y-163709000D01*
G75*
G02*
X318663000Y-163509000I0J200000D01*
G01*
G37*
G36*
G01*
X317013000Y-163509000D02*
X317013000Y-162959000D01*
G75*
G02*
X317213000Y-162759000I200000J0D01*
G01*
X317613000Y-162759000D01*
G75*
G02*
X317813000Y-162959000I0J-200000D01*
G01*
X317813000Y-163509000D01*
G75*
G02*
X317613000Y-163709000I-200000J0D01*
G01*
X317213000Y-163709000D01*
G75*
G02*
X317013000Y-163509000I0J200000D01*
G01*
G37*
%TD*%
%TO.C,R7*%
G36*
G01*
X318663000Y-165033000D02*
X318663000Y-164483000D01*
G75*
G02*
X318863000Y-164283000I200000J0D01*
G01*
X319263000Y-164283000D01*
G75*
G02*
X319463000Y-164483000I0J-200000D01*
G01*
X319463000Y-165033000D01*
G75*
G02*
X319263000Y-165233000I-200000J0D01*
G01*
X318863000Y-165233000D01*
G75*
G02*
X318663000Y-165033000I0J200000D01*
G01*
G37*
G36*
G01*
X317013000Y-165033000D02*
X317013000Y-164483000D01*
G75*
G02*
X317213000Y-164283000I200000J0D01*
G01*
X317613000Y-164283000D01*
G75*
G02*
X317813000Y-164483000I0J-200000D01*
G01*
X317813000Y-165033000D01*
G75*
G02*
X317613000Y-165233000I-200000J0D01*
G01*
X317213000Y-165233000D01*
G75*
G02*
X317013000Y-165033000I0J200000D01*
G01*
G37*
%TD*%
%TO.C,R6*%
G36*
G01*
X331663000Y-163509000D02*
X331663000Y-162959000D01*
G75*
G02*
X331863000Y-162759000I200000J0D01*
G01*
X332263000Y-162759000D01*
G75*
G02*
X332463000Y-162959000I0J-200000D01*
G01*
X332463000Y-163509000D01*
G75*
G02*
X332263000Y-163709000I-200000J0D01*
G01*
X331863000Y-163709000D01*
G75*
G02*
X331663000Y-163509000I0J200000D01*
G01*
G37*
G36*
G01*
X330013000Y-163509000D02*
X330013000Y-162959000D01*
G75*
G02*
X330213000Y-162759000I200000J0D01*
G01*
X330613000Y-162759000D01*
G75*
G02*
X330813000Y-162959000I0J-200000D01*
G01*
X330813000Y-163509000D01*
G75*
G02*
X330613000Y-163709000I-200000J0D01*
G01*
X330213000Y-163709000D01*
G75*
G02*
X330013000Y-163509000I0J200000D01*
G01*
G37*
%TD*%
%TO.C,R5*%
G36*
G01*
X331663000Y-165033000D02*
X331663000Y-164483000D01*
G75*
G02*
X331863000Y-164283000I200000J0D01*
G01*
X332263000Y-164283000D01*
G75*
G02*
X332463000Y-164483000I0J-200000D01*
G01*
X332463000Y-165033000D01*
G75*
G02*
X332263000Y-165233000I-200000J0D01*
G01*
X331863000Y-165233000D01*
G75*
G02*
X331663000Y-165033000I0J200000D01*
G01*
G37*
G36*
G01*
X330013000Y-165033000D02*
X330013000Y-164483000D01*
G75*
G02*
X330213000Y-164283000I200000J0D01*
G01*
X330613000Y-164283000D01*
G75*
G02*
X330813000Y-164483000I0J-200000D01*
G01*
X330813000Y-165033000D01*
G75*
G02*
X330613000Y-165233000I-200000J0D01*
G01*
X330213000Y-165233000D01*
G75*
G02*
X330013000Y-165033000I0J200000D01*
G01*
G37*
%TD*%
%TO.C,R4*%
G36*
G01*
X344663000Y-163509000D02*
X344663000Y-162959000D01*
G75*
G02*
X344863000Y-162759000I200000J0D01*
G01*
X345263000Y-162759000D01*
G75*
G02*
X345463000Y-162959000I0J-200000D01*
G01*
X345463000Y-163509000D01*
G75*
G02*
X345263000Y-163709000I-200000J0D01*
G01*
X344863000Y-163709000D01*
G75*
G02*
X344663000Y-163509000I0J200000D01*
G01*
G37*
G36*
G01*
X343013000Y-163509000D02*
X343013000Y-162959000D01*
G75*
G02*
X343213000Y-162759000I200000J0D01*
G01*
X343613000Y-162759000D01*
G75*
G02*
X343813000Y-162959000I0J-200000D01*
G01*
X343813000Y-163509000D01*
G75*
G02*
X343613000Y-163709000I-200000J0D01*
G01*
X343213000Y-163709000D01*
G75*
G02*
X343013000Y-163509000I0J200000D01*
G01*
G37*
%TD*%
%TO.C,R3*%
G36*
G01*
X344663000Y-165033000D02*
X344663000Y-164483000D01*
G75*
G02*
X344863000Y-164283000I200000J0D01*
G01*
X345263000Y-164283000D01*
G75*
G02*
X345463000Y-164483000I0J-200000D01*
G01*
X345463000Y-165033000D01*
G75*
G02*
X345263000Y-165233000I-200000J0D01*
G01*
X344863000Y-165233000D01*
G75*
G02*
X344663000Y-165033000I0J200000D01*
G01*
G37*
G36*
G01*
X343013000Y-165033000D02*
X343013000Y-164483000D01*
G75*
G02*
X343213000Y-164283000I200000J0D01*
G01*
X343613000Y-164283000D01*
G75*
G02*
X343813000Y-164483000I0J-200000D01*
G01*
X343813000Y-165033000D01*
G75*
G02*
X343613000Y-165233000I-200000J0D01*
G01*
X343213000Y-165233000D01*
G75*
G02*
X343013000Y-165033000I0J200000D01*
G01*
G37*
%TD*%
D12*
%TO.C,Q22*%
X81936000Y-163996000D03*
X79936000Y-164946000D03*
X79936000Y-163046000D03*
%TD*%
%TO.C,Q21*%
X94936000Y-163996000D03*
X92936000Y-164946000D03*
X92936000Y-163046000D03*
%TD*%
%TO.C,Q20*%
X107936000Y-163996000D03*
X105936000Y-164946000D03*
X105936000Y-163046000D03*
%TD*%
%TO.C,Q19*%
X120936000Y-163996000D03*
X118936000Y-164946000D03*
X118936000Y-163046000D03*
%TD*%
%TO.C,Q18*%
X133936000Y-163996000D03*
X131936000Y-164946000D03*
X131936000Y-163046000D03*
%TD*%
%TO.C,Q17*%
X146936000Y-163996000D03*
X144936000Y-164946000D03*
X144936000Y-163046000D03*
%TD*%
%TO.C,Q16*%
X159936000Y-163996000D03*
X157936000Y-164946000D03*
X157936000Y-163046000D03*
%TD*%
%TO.C,Q15*%
X172936000Y-163996000D03*
X170936000Y-164946000D03*
X170936000Y-163046000D03*
%TD*%
%TO.C,Q14*%
X185936000Y-163996000D03*
X183936000Y-164946000D03*
X183936000Y-163046000D03*
%TD*%
%TO.C,Q13*%
X198936000Y-163996000D03*
X196936000Y-164946000D03*
X196936000Y-163046000D03*
%TD*%
%TO.C,Q12*%
X211936000Y-163996000D03*
X209936000Y-164946000D03*
X209936000Y-163046000D03*
%TD*%
%TO.C,Q11*%
X224936000Y-163996000D03*
X222936000Y-164946000D03*
X222936000Y-163046000D03*
%TD*%
%TO.C,Q10*%
X237936000Y-163996000D03*
X235936000Y-164946000D03*
X235936000Y-163046000D03*
%TD*%
%TO.C,Q9*%
X250936000Y-163996000D03*
X248936000Y-164946000D03*
X248936000Y-163046000D03*
%TD*%
%TO.C,Q8*%
X263936000Y-163996000D03*
X261936000Y-164946000D03*
X261936000Y-163046000D03*
%TD*%
%TO.C,Q7*%
X276936000Y-163996000D03*
X274936000Y-164946000D03*
X274936000Y-163046000D03*
%TD*%
%TO.C,Q6*%
X289936000Y-163996000D03*
X287936000Y-164946000D03*
X287936000Y-163046000D03*
%TD*%
%TO.C,Q5*%
X302936000Y-163996000D03*
X300936000Y-164946000D03*
X300936000Y-163046000D03*
%TD*%
%TO.C,Q4*%
X315936000Y-163996000D03*
X313936000Y-164946000D03*
X313936000Y-163046000D03*
%TD*%
%TO.C,Q3*%
X328936000Y-163996000D03*
X326936000Y-164946000D03*
X326936000Y-163046000D03*
%TD*%
%TO.C,Q2*%
X341936000Y-163996000D03*
X339936000Y-164946000D03*
X339936000Y-163046000D03*
%TD*%
%TO.C,J22*%
G36*
G01*
X83500000Y-129500000D02*
X86500000Y-129500000D01*
G75*
G02*
X88000000Y-131000000I0J-1500000D01*
G01*
X88000000Y-134000000D01*
G75*
G02*
X86500000Y-135500000I-1500000J0D01*
G01*
X83500000Y-135500000D01*
G75*
G02*
X82000000Y-134000000I0J1500000D01*
G01*
X82000000Y-131000000D01*
G75*
G02*
X83500000Y-129500000I1500000J0D01*
G01*
G37*
D13*
X85000000Y-139700000D03*
%TD*%
%TO.C,J21*%
G36*
G01*
X96500000Y-113500000D02*
X99500000Y-113500000D01*
G75*
G02*
X101000000Y-115000000I0J-1500000D01*
G01*
X101000000Y-118000000D01*
G75*
G02*
X99500000Y-119500000I-1500000J0D01*
G01*
X96500000Y-119500000D01*
G75*
G02*
X95000000Y-118000000I0J1500000D01*
G01*
X95000000Y-115000000D01*
G75*
G02*
X96500000Y-113500000I1500000J0D01*
G01*
G37*
X98000000Y-123700000D03*
%TD*%
%TO.C,J20*%
G36*
G01*
X109500000Y-97500000D02*
X112500000Y-97500000D01*
G75*
G02*
X114000000Y-99000000I0J-1500000D01*
G01*
X114000000Y-102000000D01*
G75*
G02*
X112500000Y-103500000I-1500000J0D01*
G01*
X109500000Y-103500000D01*
G75*
G02*
X108000000Y-102000000I0J1500000D01*
G01*
X108000000Y-99000000D01*
G75*
G02*
X109500000Y-97500000I1500000J0D01*
G01*
G37*
X111000000Y-107700000D03*
%TD*%
%TO.C,J19*%
G36*
G01*
X122500000Y-129500000D02*
X125500000Y-129500000D01*
G75*
G02*
X127000000Y-131000000I0J-1500000D01*
G01*
X127000000Y-134000000D01*
G75*
G02*
X125500000Y-135500000I-1500000J0D01*
G01*
X122500000Y-135500000D01*
G75*
G02*
X121000000Y-134000000I0J1500000D01*
G01*
X121000000Y-131000000D01*
G75*
G02*
X122500000Y-129500000I1500000J0D01*
G01*
G37*
X124000000Y-139700000D03*
%TD*%
%TO.C,J18*%
G36*
G01*
X135500000Y-113500000D02*
X138500000Y-113500000D01*
G75*
G02*
X140000000Y-115000000I0J-1500000D01*
G01*
X140000000Y-118000000D01*
G75*
G02*
X138500000Y-119500000I-1500000J0D01*
G01*
X135500000Y-119500000D01*
G75*
G02*
X134000000Y-118000000I0J1500000D01*
G01*
X134000000Y-115000000D01*
G75*
G02*
X135500000Y-113500000I1500000J0D01*
G01*
G37*
X137000000Y-123700000D03*
%TD*%
%TO.C,J17*%
G36*
G01*
X148500000Y-97500000D02*
X151500000Y-97500000D01*
G75*
G02*
X153000000Y-99000000I0J-1500000D01*
G01*
X153000000Y-102000000D01*
G75*
G02*
X151500000Y-103500000I-1500000J0D01*
G01*
X148500000Y-103500000D01*
G75*
G02*
X147000000Y-102000000I0J1500000D01*
G01*
X147000000Y-99000000D01*
G75*
G02*
X148500000Y-97500000I1500000J0D01*
G01*
G37*
X150000000Y-107700000D03*
%TD*%
%TO.C,J16*%
G36*
G01*
X161500000Y-129500000D02*
X164500000Y-129500000D01*
G75*
G02*
X166000000Y-131000000I0J-1500000D01*
G01*
X166000000Y-134000000D01*
G75*
G02*
X164500000Y-135500000I-1500000J0D01*
G01*
X161500000Y-135500000D01*
G75*
G02*
X160000000Y-134000000I0J1500000D01*
G01*
X160000000Y-131000000D01*
G75*
G02*
X161500000Y-129500000I1500000J0D01*
G01*
G37*
X163000000Y-139700000D03*
%TD*%
%TO.C,J15*%
G36*
G01*
X174500000Y-113500000D02*
X177500000Y-113500000D01*
G75*
G02*
X179000000Y-115000000I0J-1500000D01*
G01*
X179000000Y-118000000D01*
G75*
G02*
X177500000Y-119500000I-1500000J0D01*
G01*
X174500000Y-119500000D01*
G75*
G02*
X173000000Y-118000000I0J1500000D01*
G01*
X173000000Y-115000000D01*
G75*
G02*
X174500000Y-113500000I1500000J0D01*
G01*
G37*
X176000000Y-123700000D03*
%TD*%
%TO.C,J14*%
G36*
G01*
X187500000Y-97500000D02*
X190500000Y-97500000D01*
G75*
G02*
X192000000Y-99000000I0J-1500000D01*
G01*
X192000000Y-102000000D01*
G75*
G02*
X190500000Y-103500000I-1500000J0D01*
G01*
X187500000Y-103500000D01*
G75*
G02*
X186000000Y-102000000I0J1500000D01*
G01*
X186000000Y-99000000D01*
G75*
G02*
X187500000Y-97500000I1500000J0D01*
G01*
G37*
X189000000Y-107700000D03*
%TD*%
%TO.C,J13*%
G36*
G01*
X200500000Y-129500000D02*
X203500000Y-129500000D01*
G75*
G02*
X205000000Y-131000000I0J-1500000D01*
G01*
X205000000Y-134000000D01*
G75*
G02*
X203500000Y-135500000I-1500000J0D01*
G01*
X200500000Y-135500000D01*
G75*
G02*
X199000000Y-134000000I0J1500000D01*
G01*
X199000000Y-131000000D01*
G75*
G02*
X200500000Y-129500000I1500000J0D01*
G01*
G37*
X202000000Y-139700000D03*
%TD*%
%TO.C,J12*%
G36*
G01*
X213500000Y-113500000D02*
X216500000Y-113500000D01*
G75*
G02*
X218000000Y-115000000I0J-1500000D01*
G01*
X218000000Y-118000000D01*
G75*
G02*
X216500000Y-119500000I-1500000J0D01*
G01*
X213500000Y-119500000D01*
G75*
G02*
X212000000Y-118000000I0J1500000D01*
G01*
X212000000Y-115000000D01*
G75*
G02*
X213500000Y-113500000I1500000J0D01*
G01*
G37*
X215000000Y-123700000D03*
%TD*%
%TO.C,J11*%
G36*
G01*
X226500000Y-97500000D02*
X229500000Y-97500000D01*
G75*
G02*
X231000000Y-99000000I0J-1500000D01*
G01*
X231000000Y-102000000D01*
G75*
G02*
X229500000Y-103500000I-1500000J0D01*
G01*
X226500000Y-103500000D01*
G75*
G02*
X225000000Y-102000000I0J1500000D01*
G01*
X225000000Y-99000000D01*
G75*
G02*
X226500000Y-97500000I1500000J0D01*
G01*
G37*
X228000000Y-107700000D03*
%TD*%
%TO.C,J10*%
G36*
G01*
X239500000Y-129500000D02*
X242500000Y-129500000D01*
G75*
G02*
X244000000Y-131000000I0J-1500000D01*
G01*
X244000000Y-134000000D01*
G75*
G02*
X242500000Y-135500000I-1500000J0D01*
G01*
X239500000Y-135500000D01*
G75*
G02*
X238000000Y-134000000I0J1500000D01*
G01*
X238000000Y-131000000D01*
G75*
G02*
X239500000Y-129500000I1500000J0D01*
G01*
G37*
X241000000Y-139700000D03*
%TD*%
%TO.C,J9*%
G36*
G01*
X252500000Y-113500000D02*
X255500000Y-113500000D01*
G75*
G02*
X257000000Y-115000000I0J-1500000D01*
G01*
X257000000Y-118000000D01*
G75*
G02*
X255500000Y-119500000I-1500000J0D01*
G01*
X252500000Y-119500000D01*
G75*
G02*
X251000000Y-118000000I0J1500000D01*
G01*
X251000000Y-115000000D01*
G75*
G02*
X252500000Y-113500000I1500000J0D01*
G01*
G37*
X254000000Y-123700000D03*
%TD*%
%TO.C,J8*%
G36*
G01*
X265500000Y-97500000D02*
X268500000Y-97500000D01*
G75*
G02*
X270000000Y-99000000I0J-1500000D01*
G01*
X270000000Y-102000000D01*
G75*
G02*
X268500000Y-103500000I-1500000J0D01*
G01*
X265500000Y-103500000D01*
G75*
G02*
X264000000Y-102000000I0J1500000D01*
G01*
X264000000Y-99000000D01*
G75*
G02*
X265500000Y-97500000I1500000J0D01*
G01*
G37*
X267000000Y-107700000D03*
%TD*%
%TO.C,J7*%
G36*
G01*
X278500000Y-129500000D02*
X281500000Y-129500000D01*
G75*
G02*
X283000000Y-131000000I0J-1500000D01*
G01*
X283000000Y-134000000D01*
G75*
G02*
X281500000Y-135500000I-1500000J0D01*
G01*
X278500000Y-135500000D01*
G75*
G02*
X277000000Y-134000000I0J1500000D01*
G01*
X277000000Y-131000000D01*
G75*
G02*
X278500000Y-129500000I1500000J0D01*
G01*
G37*
X280000000Y-139700000D03*
%TD*%
%TO.C,J6*%
G36*
G01*
X291500000Y-113500000D02*
X294500000Y-113500000D01*
G75*
G02*
X296000000Y-115000000I0J-1500000D01*
G01*
X296000000Y-118000000D01*
G75*
G02*
X294500000Y-119500000I-1500000J0D01*
G01*
X291500000Y-119500000D01*
G75*
G02*
X290000000Y-118000000I0J1500000D01*
G01*
X290000000Y-115000000D01*
G75*
G02*
X291500000Y-113500000I1500000J0D01*
G01*
G37*
X293000000Y-123700000D03*
%TD*%
%TO.C,J5*%
G36*
G01*
X304500000Y-97500000D02*
X307500000Y-97500000D01*
G75*
G02*
X309000000Y-99000000I0J-1500000D01*
G01*
X309000000Y-102000000D01*
G75*
G02*
X307500000Y-103500000I-1500000J0D01*
G01*
X304500000Y-103500000D01*
G75*
G02*
X303000000Y-102000000I0J1500000D01*
G01*
X303000000Y-99000000D01*
G75*
G02*
X304500000Y-97500000I1500000J0D01*
G01*
G37*
X306000000Y-107700000D03*
%TD*%
%TO.C,J4*%
G36*
G01*
X317500000Y-129500000D02*
X320500000Y-129500000D01*
G75*
G02*
X322000000Y-131000000I0J-1500000D01*
G01*
X322000000Y-134000000D01*
G75*
G02*
X320500000Y-135500000I-1500000J0D01*
G01*
X317500000Y-135500000D01*
G75*
G02*
X316000000Y-134000000I0J1500000D01*
G01*
X316000000Y-131000000D01*
G75*
G02*
X317500000Y-129500000I1500000J0D01*
G01*
G37*
X319000000Y-139700000D03*
%TD*%
%TO.C,J3*%
G36*
G01*
X330500000Y-113500000D02*
X333500000Y-113500000D01*
G75*
G02*
X335000000Y-115000000I0J-1500000D01*
G01*
X335000000Y-118000000D01*
G75*
G02*
X333500000Y-119500000I-1500000J0D01*
G01*
X330500000Y-119500000D01*
G75*
G02*
X329000000Y-118000000I0J1500000D01*
G01*
X329000000Y-115000000D01*
G75*
G02*
X330500000Y-113500000I1500000J0D01*
G01*
G37*
X332000000Y-123700000D03*
%TD*%
%TO.C,J2*%
G36*
G01*
X343500000Y-97500000D02*
X346500000Y-97500000D01*
G75*
G02*
X348000000Y-99000000I0J-1500000D01*
G01*
X348000000Y-102000000D01*
G75*
G02*
X346500000Y-103500000I-1500000J0D01*
G01*
X343500000Y-103500000D01*
G75*
G02*
X342000000Y-102000000I0J1500000D01*
G01*
X342000000Y-99000000D01*
G75*
G02*
X343500000Y-97500000I1500000J0D01*
G01*
G37*
X345000000Y-107700000D03*
%TD*%
D14*
%TO.C,F22*%
X86778000Y-148488000D03*
X83378000Y-148488000D03*
X86778000Y-158408000D03*
X83378000Y-158408000D03*
%TD*%
%TO.C,F21*%
X99778000Y-148488000D03*
X96378000Y-148488000D03*
X99778000Y-158408000D03*
X96378000Y-158408000D03*
%TD*%
%TO.C,F20*%
X112778000Y-148488000D03*
X109378000Y-148488000D03*
X112778000Y-158408000D03*
X109378000Y-158408000D03*
%TD*%
%TO.C,F19*%
X125778000Y-148488000D03*
X122378000Y-148488000D03*
X125778000Y-158408000D03*
X122378000Y-158408000D03*
%TD*%
%TO.C,F18*%
X138778000Y-148488000D03*
X135378000Y-148488000D03*
X138778000Y-158408000D03*
X135378000Y-158408000D03*
%TD*%
%TO.C,F17*%
X151778000Y-148488000D03*
X148378000Y-148488000D03*
X151778000Y-158408000D03*
X148378000Y-158408000D03*
%TD*%
%TO.C,F16*%
X164778000Y-148488000D03*
X161378000Y-148488000D03*
X164778000Y-158408000D03*
X161378000Y-158408000D03*
%TD*%
%TO.C,F15*%
X177778000Y-148488000D03*
X174378000Y-148488000D03*
X177778000Y-158408000D03*
X174378000Y-158408000D03*
%TD*%
%TO.C,F14*%
X190778000Y-148488000D03*
X187378000Y-148488000D03*
X190778000Y-158408000D03*
X187378000Y-158408000D03*
%TD*%
%TO.C,F13*%
X203778000Y-148488000D03*
X200378000Y-148488000D03*
X203778000Y-158408000D03*
X200378000Y-158408000D03*
%TD*%
%TO.C,F12*%
X216778000Y-148488000D03*
X213378000Y-148488000D03*
X216778000Y-158408000D03*
X213378000Y-158408000D03*
%TD*%
%TO.C,F11*%
X229778000Y-148488000D03*
X226378000Y-148488000D03*
X229778000Y-158408000D03*
X226378000Y-158408000D03*
%TD*%
%TO.C,F10*%
X242778000Y-148488000D03*
X239378000Y-148488000D03*
X242778000Y-158408000D03*
X239378000Y-158408000D03*
%TD*%
%TO.C,F9*%
X255778000Y-148488000D03*
X252378000Y-148488000D03*
X255778000Y-158408000D03*
X252378000Y-158408000D03*
%TD*%
%TO.C,F8*%
X268778000Y-148488000D03*
X265378000Y-148488000D03*
X268778000Y-158408000D03*
X265378000Y-158408000D03*
%TD*%
%TO.C,F7*%
X281778000Y-148488000D03*
X278378000Y-148488000D03*
X281778000Y-158408000D03*
X278378000Y-158408000D03*
%TD*%
%TO.C,F6*%
X294778000Y-148488000D03*
X291378000Y-148488000D03*
X294778000Y-158408000D03*
X291378000Y-158408000D03*
%TD*%
%TO.C,F5*%
X307778000Y-148488000D03*
X304378000Y-148488000D03*
X307778000Y-158408000D03*
X304378000Y-158408000D03*
%TD*%
%TO.C,F4*%
X320778000Y-148488000D03*
X317378000Y-148488000D03*
X320778000Y-158408000D03*
X317378000Y-158408000D03*
%TD*%
%TO.C,F3*%
X333778000Y-148488000D03*
X330378000Y-148488000D03*
X333778000Y-158408000D03*
X330378000Y-158408000D03*
%TD*%
%TO.C,F2*%
X346778000Y-148488000D03*
X343378000Y-148488000D03*
X346778000Y-158408000D03*
X343378000Y-158408000D03*
%TD*%
D15*
%TO.C,D44*%
X79920000Y-157774000D03*
X79920000Y-161074000D03*
%TD*%
%TO.C,D43*%
G36*
G01*
X85324500Y-167808250D02*
X85324500Y-167295750D01*
G75*
G02*
X85543250Y-167077000I218750J0D01*
G01*
X85980750Y-167077000D01*
G75*
G02*
X86199500Y-167295750I0J-218750D01*
G01*
X86199500Y-167808250D01*
G75*
G02*
X85980750Y-168027000I-218750J0D01*
G01*
X85543250Y-168027000D01*
G75*
G02*
X85324500Y-167808250I0J218750D01*
G01*
G37*
G36*
G01*
X83749500Y-167808250D02*
X83749500Y-167295750D01*
G75*
G02*
X83968250Y-167077000I218750J0D01*
G01*
X84405750Y-167077000D01*
G75*
G02*
X84624500Y-167295750I0J-218750D01*
G01*
X84624500Y-167808250D01*
G75*
G02*
X84405750Y-168027000I-218750J0D01*
G01*
X83968250Y-168027000D01*
G75*
G02*
X83749500Y-167808250I0J218750D01*
G01*
G37*
%TD*%
%TO.C,D42*%
X92920000Y-157774000D03*
X92920000Y-161074000D03*
%TD*%
%TO.C,D41*%
G36*
G01*
X98324501Y-167808250D02*
X98324501Y-167295750D01*
G75*
G02*
X98543251Y-167077000I218750J0D01*
G01*
X98980751Y-167077000D01*
G75*
G02*
X99199501Y-167295750I0J-218750D01*
G01*
X99199501Y-167808250D01*
G75*
G02*
X98980751Y-168027000I-218750J0D01*
G01*
X98543251Y-168027000D01*
G75*
G02*
X98324501Y-167808250I0J218750D01*
G01*
G37*
G36*
G01*
X96749501Y-167808250D02*
X96749501Y-167295750D01*
G75*
G02*
X96968251Y-167077000I218750J0D01*
G01*
X97405751Y-167077000D01*
G75*
G02*
X97624501Y-167295750I0J-218750D01*
G01*
X97624501Y-167808250D01*
G75*
G02*
X97405751Y-168027000I-218750J0D01*
G01*
X96968251Y-168027000D01*
G75*
G02*
X96749501Y-167808250I0J218750D01*
G01*
G37*
%TD*%
%TO.C,D40*%
X105920000Y-157774000D03*
X105920000Y-161074000D03*
%TD*%
%TO.C,D39*%
G36*
G01*
X111324500Y-167808250D02*
X111324500Y-167295750D01*
G75*
G02*
X111543250Y-167077000I218750J0D01*
G01*
X111980750Y-167077000D01*
G75*
G02*
X112199500Y-167295750I0J-218750D01*
G01*
X112199500Y-167808250D01*
G75*
G02*
X111980750Y-168027000I-218750J0D01*
G01*
X111543250Y-168027000D01*
G75*
G02*
X111324500Y-167808250I0J218750D01*
G01*
G37*
G36*
G01*
X109749500Y-167808250D02*
X109749500Y-167295750D01*
G75*
G02*
X109968250Y-167077000I218750J0D01*
G01*
X110405750Y-167077000D01*
G75*
G02*
X110624500Y-167295750I0J-218750D01*
G01*
X110624500Y-167808250D01*
G75*
G02*
X110405750Y-168027000I-218750J0D01*
G01*
X109968250Y-168027000D01*
G75*
G02*
X109749500Y-167808250I0J218750D01*
G01*
G37*
%TD*%
%TO.C,D38*%
X118920000Y-157774000D03*
X118920000Y-161074000D03*
%TD*%
%TO.C,D37*%
G36*
G01*
X124324500Y-167808250D02*
X124324500Y-167295750D01*
G75*
G02*
X124543250Y-167077000I218750J0D01*
G01*
X124980750Y-167077000D01*
G75*
G02*
X125199500Y-167295750I0J-218750D01*
G01*
X125199500Y-167808250D01*
G75*
G02*
X124980750Y-168027000I-218750J0D01*
G01*
X124543250Y-168027000D01*
G75*
G02*
X124324500Y-167808250I0J218750D01*
G01*
G37*
G36*
G01*
X122749500Y-167808250D02*
X122749500Y-167295750D01*
G75*
G02*
X122968250Y-167077000I218750J0D01*
G01*
X123405750Y-167077000D01*
G75*
G02*
X123624500Y-167295750I0J-218750D01*
G01*
X123624500Y-167808250D01*
G75*
G02*
X123405750Y-168027000I-218750J0D01*
G01*
X122968250Y-168027000D01*
G75*
G02*
X122749500Y-167808250I0J218750D01*
G01*
G37*
%TD*%
%TO.C,D36*%
X131920000Y-157774000D03*
X131920000Y-161074000D03*
%TD*%
%TO.C,D35*%
G36*
G01*
X137324501Y-167808250D02*
X137324501Y-167295750D01*
G75*
G02*
X137543251Y-167077000I218750J0D01*
G01*
X137980751Y-167077000D01*
G75*
G02*
X138199501Y-167295750I0J-218750D01*
G01*
X138199501Y-167808250D01*
G75*
G02*
X137980751Y-168027000I-218750J0D01*
G01*
X137543251Y-168027000D01*
G75*
G02*
X137324501Y-167808250I0J218750D01*
G01*
G37*
G36*
G01*
X135749501Y-167808250D02*
X135749501Y-167295750D01*
G75*
G02*
X135968251Y-167077000I218750J0D01*
G01*
X136405751Y-167077000D01*
G75*
G02*
X136624501Y-167295750I0J-218750D01*
G01*
X136624501Y-167808250D01*
G75*
G02*
X136405751Y-168027000I-218750J0D01*
G01*
X135968251Y-168027000D01*
G75*
G02*
X135749501Y-167808250I0J218750D01*
G01*
G37*
%TD*%
%TO.C,D34*%
X144920000Y-157774000D03*
X144920000Y-161074000D03*
%TD*%
%TO.C,D33*%
G36*
G01*
X150324500Y-167808250D02*
X150324500Y-167295750D01*
G75*
G02*
X150543250Y-167077000I218750J0D01*
G01*
X150980750Y-167077000D01*
G75*
G02*
X151199500Y-167295750I0J-218750D01*
G01*
X151199500Y-167808250D01*
G75*
G02*
X150980750Y-168027000I-218750J0D01*
G01*
X150543250Y-168027000D01*
G75*
G02*
X150324500Y-167808250I0J218750D01*
G01*
G37*
G36*
G01*
X148749500Y-167808250D02*
X148749500Y-167295750D01*
G75*
G02*
X148968250Y-167077000I218750J0D01*
G01*
X149405750Y-167077000D01*
G75*
G02*
X149624500Y-167295750I0J-218750D01*
G01*
X149624500Y-167808250D01*
G75*
G02*
X149405750Y-168027000I-218750J0D01*
G01*
X148968250Y-168027000D01*
G75*
G02*
X148749500Y-167808250I0J218750D01*
G01*
G37*
%TD*%
%TO.C,D32*%
X157920000Y-157774000D03*
X157920000Y-161074000D03*
%TD*%
%TO.C,D31*%
G36*
G01*
X163324500Y-167808250D02*
X163324500Y-167295750D01*
G75*
G02*
X163543250Y-167077000I218750J0D01*
G01*
X163980750Y-167077000D01*
G75*
G02*
X164199500Y-167295750I0J-218750D01*
G01*
X164199500Y-167808250D01*
G75*
G02*
X163980750Y-168027000I-218750J0D01*
G01*
X163543250Y-168027000D01*
G75*
G02*
X163324500Y-167808250I0J218750D01*
G01*
G37*
G36*
G01*
X161749500Y-167808250D02*
X161749500Y-167295750D01*
G75*
G02*
X161968250Y-167077000I218750J0D01*
G01*
X162405750Y-167077000D01*
G75*
G02*
X162624500Y-167295750I0J-218750D01*
G01*
X162624500Y-167808250D01*
G75*
G02*
X162405750Y-168027000I-218750J0D01*
G01*
X161968250Y-168027000D01*
G75*
G02*
X161749500Y-167808250I0J218750D01*
G01*
G37*
%TD*%
%TO.C,D30*%
X170920000Y-157774000D03*
X170920000Y-161074000D03*
%TD*%
%TO.C,D29*%
G36*
G01*
X176324500Y-167808250D02*
X176324500Y-167295750D01*
G75*
G02*
X176543250Y-167077000I218750J0D01*
G01*
X176980750Y-167077000D01*
G75*
G02*
X177199500Y-167295750I0J-218750D01*
G01*
X177199500Y-167808250D01*
G75*
G02*
X176980750Y-168027000I-218750J0D01*
G01*
X176543250Y-168027000D01*
G75*
G02*
X176324500Y-167808250I0J218750D01*
G01*
G37*
G36*
G01*
X174749500Y-167808250D02*
X174749500Y-167295750D01*
G75*
G02*
X174968250Y-167077000I218750J0D01*
G01*
X175405750Y-167077000D01*
G75*
G02*
X175624500Y-167295750I0J-218750D01*
G01*
X175624500Y-167808250D01*
G75*
G02*
X175405750Y-168027000I-218750J0D01*
G01*
X174968250Y-168027000D01*
G75*
G02*
X174749500Y-167808250I0J218750D01*
G01*
G37*
%TD*%
%TO.C,D28*%
X183920000Y-157774000D03*
X183920000Y-161074000D03*
%TD*%
%TO.C,D27*%
G36*
G01*
X189324500Y-167808250D02*
X189324500Y-167295750D01*
G75*
G02*
X189543250Y-167077000I218750J0D01*
G01*
X189980750Y-167077000D01*
G75*
G02*
X190199500Y-167295750I0J-218750D01*
G01*
X190199500Y-167808250D01*
G75*
G02*
X189980750Y-168027000I-218750J0D01*
G01*
X189543250Y-168027000D01*
G75*
G02*
X189324500Y-167808250I0J218750D01*
G01*
G37*
G36*
G01*
X187749500Y-167808250D02*
X187749500Y-167295750D01*
G75*
G02*
X187968250Y-167077000I218750J0D01*
G01*
X188405750Y-167077000D01*
G75*
G02*
X188624500Y-167295750I0J-218750D01*
G01*
X188624500Y-167808250D01*
G75*
G02*
X188405750Y-168027000I-218750J0D01*
G01*
X187968250Y-168027000D01*
G75*
G02*
X187749500Y-167808250I0J218750D01*
G01*
G37*
%TD*%
%TO.C,D26*%
X196920000Y-157774000D03*
X196920000Y-161074000D03*
%TD*%
%TO.C,D25*%
G36*
G01*
X202324500Y-167808250D02*
X202324500Y-167295750D01*
G75*
G02*
X202543250Y-167077000I218750J0D01*
G01*
X202980750Y-167077000D01*
G75*
G02*
X203199500Y-167295750I0J-218750D01*
G01*
X203199500Y-167808250D01*
G75*
G02*
X202980750Y-168027000I-218750J0D01*
G01*
X202543250Y-168027000D01*
G75*
G02*
X202324500Y-167808250I0J218750D01*
G01*
G37*
G36*
G01*
X200749500Y-167808250D02*
X200749500Y-167295750D01*
G75*
G02*
X200968250Y-167077000I218750J0D01*
G01*
X201405750Y-167077000D01*
G75*
G02*
X201624500Y-167295750I0J-218750D01*
G01*
X201624500Y-167808250D01*
G75*
G02*
X201405750Y-168027000I-218750J0D01*
G01*
X200968250Y-168027000D01*
G75*
G02*
X200749500Y-167808250I0J218750D01*
G01*
G37*
%TD*%
%TO.C,D24*%
X209920000Y-157774000D03*
X209920000Y-161074000D03*
%TD*%
%TO.C,D23*%
G36*
G01*
X215324501Y-167808250D02*
X215324501Y-167295750D01*
G75*
G02*
X215543251Y-167077000I218750J0D01*
G01*
X215980751Y-167077000D01*
G75*
G02*
X216199501Y-167295750I0J-218750D01*
G01*
X216199501Y-167808250D01*
G75*
G02*
X215980751Y-168027000I-218750J0D01*
G01*
X215543251Y-168027000D01*
G75*
G02*
X215324501Y-167808250I0J218750D01*
G01*
G37*
G36*
G01*
X213749501Y-167808250D02*
X213749501Y-167295750D01*
G75*
G02*
X213968251Y-167077000I218750J0D01*
G01*
X214405751Y-167077000D01*
G75*
G02*
X214624501Y-167295750I0J-218750D01*
G01*
X214624501Y-167808250D01*
G75*
G02*
X214405751Y-168027000I-218750J0D01*
G01*
X213968251Y-168027000D01*
G75*
G02*
X213749501Y-167808250I0J218750D01*
G01*
G37*
%TD*%
%TO.C,D22*%
X222920000Y-157774000D03*
X222920000Y-161074000D03*
%TD*%
%TO.C,D21*%
G36*
G01*
X228324500Y-167808250D02*
X228324500Y-167295750D01*
G75*
G02*
X228543250Y-167077000I218750J0D01*
G01*
X228980750Y-167077000D01*
G75*
G02*
X229199500Y-167295750I0J-218750D01*
G01*
X229199500Y-167808250D01*
G75*
G02*
X228980750Y-168027000I-218750J0D01*
G01*
X228543250Y-168027000D01*
G75*
G02*
X228324500Y-167808250I0J218750D01*
G01*
G37*
G36*
G01*
X226749500Y-167808250D02*
X226749500Y-167295750D01*
G75*
G02*
X226968250Y-167077000I218750J0D01*
G01*
X227405750Y-167077000D01*
G75*
G02*
X227624500Y-167295750I0J-218750D01*
G01*
X227624500Y-167808250D01*
G75*
G02*
X227405750Y-168027000I-218750J0D01*
G01*
X226968250Y-168027000D01*
G75*
G02*
X226749500Y-167808250I0J218750D01*
G01*
G37*
%TD*%
%TO.C,D20*%
X235920000Y-157774000D03*
X235920000Y-161074000D03*
%TD*%
%TO.C,D19*%
G36*
G01*
X241324500Y-167808250D02*
X241324500Y-167295750D01*
G75*
G02*
X241543250Y-167077000I218750J0D01*
G01*
X241980750Y-167077000D01*
G75*
G02*
X242199500Y-167295750I0J-218750D01*
G01*
X242199500Y-167808250D01*
G75*
G02*
X241980750Y-168027000I-218750J0D01*
G01*
X241543250Y-168027000D01*
G75*
G02*
X241324500Y-167808250I0J218750D01*
G01*
G37*
G36*
G01*
X239749500Y-167808250D02*
X239749500Y-167295750D01*
G75*
G02*
X239968250Y-167077000I218750J0D01*
G01*
X240405750Y-167077000D01*
G75*
G02*
X240624500Y-167295750I0J-218750D01*
G01*
X240624500Y-167808250D01*
G75*
G02*
X240405750Y-168027000I-218750J0D01*
G01*
X239968250Y-168027000D01*
G75*
G02*
X239749500Y-167808250I0J218750D01*
G01*
G37*
%TD*%
%TO.C,D18*%
X248920000Y-157774000D03*
X248920000Y-161074000D03*
%TD*%
%TO.C,D17*%
G36*
G01*
X254324500Y-167808250D02*
X254324500Y-167295750D01*
G75*
G02*
X254543250Y-167077000I218750J0D01*
G01*
X254980750Y-167077000D01*
G75*
G02*
X255199500Y-167295750I0J-218750D01*
G01*
X255199500Y-167808250D01*
G75*
G02*
X254980750Y-168027000I-218750J0D01*
G01*
X254543250Y-168027000D01*
G75*
G02*
X254324500Y-167808250I0J218750D01*
G01*
G37*
G36*
G01*
X252749500Y-167808250D02*
X252749500Y-167295750D01*
G75*
G02*
X252968250Y-167077000I218750J0D01*
G01*
X253405750Y-167077000D01*
G75*
G02*
X253624500Y-167295750I0J-218750D01*
G01*
X253624500Y-167808250D01*
G75*
G02*
X253405750Y-168027000I-218750J0D01*
G01*
X252968250Y-168027000D01*
G75*
G02*
X252749500Y-167808250I0J218750D01*
G01*
G37*
%TD*%
%TO.C,D16*%
X261920000Y-157774000D03*
X261920000Y-161074000D03*
%TD*%
%TO.C,D15*%
G36*
G01*
X267324500Y-167808250D02*
X267324500Y-167295750D01*
G75*
G02*
X267543250Y-167077000I218750J0D01*
G01*
X267980750Y-167077000D01*
G75*
G02*
X268199500Y-167295750I0J-218750D01*
G01*
X268199500Y-167808250D01*
G75*
G02*
X267980750Y-168027000I-218750J0D01*
G01*
X267543250Y-168027000D01*
G75*
G02*
X267324500Y-167808250I0J218750D01*
G01*
G37*
G36*
G01*
X265749500Y-167808250D02*
X265749500Y-167295750D01*
G75*
G02*
X265968250Y-167077000I218750J0D01*
G01*
X266405750Y-167077000D01*
G75*
G02*
X266624500Y-167295750I0J-218750D01*
G01*
X266624500Y-167808250D01*
G75*
G02*
X266405750Y-168027000I-218750J0D01*
G01*
X265968250Y-168027000D01*
G75*
G02*
X265749500Y-167808250I0J218750D01*
G01*
G37*
%TD*%
%TO.C,D14*%
X274920000Y-157774000D03*
X274920000Y-161074000D03*
%TD*%
%TO.C,D13*%
G36*
G01*
X280324500Y-167808250D02*
X280324500Y-167295750D01*
G75*
G02*
X280543250Y-167077000I218750J0D01*
G01*
X280980750Y-167077000D01*
G75*
G02*
X281199500Y-167295750I0J-218750D01*
G01*
X281199500Y-167808250D01*
G75*
G02*
X280980750Y-168027000I-218750J0D01*
G01*
X280543250Y-168027000D01*
G75*
G02*
X280324500Y-167808250I0J218750D01*
G01*
G37*
G36*
G01*
X278749500Y-167808250D02*
X278749500Y-167295750D01*
G75*
G02*
X278968250Y-167077000I218750J0D01*
G01*
X279405750Y-167077000D01*
G75*
G02*
X279624500Y-167295750I0J-218750D01*
G01*
X279624500Y-167808250D01*
G75*
G02*
X279405750Y-168027000I-218750J0D01*
G01*
X278968250Y-168027000D01*
G75*
G02*
X278749500Y-167808250I0J218750D01*
G01*
G37*
%TD*%
%TO.C,D12*%
X287920000Y-157774000D03*
X287920000Y-161074000D03*
%TD*%
%TO.C,D11*%
G36*
G01*
X293324500Y-167808250D02*
X293324500Y-167295750D01*
G75*
G02*
X293543250Y-167077000I218750J0D01*
G01*
X293980750Y-167077000D01*
G75*
G02*
X294199500Y-167295750I0J-218750D01*
G01*
X294199500Y-167808250D01*
G75*
G02*
X293980750Y-168027000I-218750J0D01*
G01*
X293543250Y-168027000D01*
G75*
G02*
X293324500Y-167808250I0J218750D01*
G01*
G37*
G36*
G01*
X291749500Y-167808250D02*
X291749500Y-167295750D01*
G75*
G02*
X291968250Y-167077000I218750J0D01*
G01*
X292405750Y-167077000D01*
G75*
G02*
X292624500Y-167295750I0J-218750D01*
G01*
X292624500Y-167808250D01*
G75*
G02*
X292405750Y-168027000I-218750J0D01*
G01*
X291968250Y-168027000D01*
G75*
G02*
X291749500Y-167808250I0J218750D01*
G01*
G37*
%TD*%
%TO.C,D10*%
X300920000Y-157774000D03*
X300920000Y-161074000D03*
%TD*%
%TO.C,D9*%
G36*
G01*
X306324500Y-167808250D02*
X306324500Y-167295750D01*
G75*
G02*
X306543250Y-167077000I218750J0D01*
G01*
X306980750Y-167077000D01*
G75*
G02*
X307199500Y-167295750I0J-218750D01*
G01*
X307199500Y-167808250D01*
G75*
G02*
X306980750Y-168027000I-218750J0D01*
G01*
X306543250Y-168027000D01*
G75*
G02*
X306324500Y-167808250I0J218750D01*
G01*
G37*
G36*
G01*
X304749500Y-167808250D02*
X304749500Y-167295750D01*
G75*
G02*
X304968250Y-167077000I218750J0D01*
G01*
X305405750Y-167077000D01*
G75*
G02*
X305624500Y-167295750I0J-218750D01*
G01*
X305624500Y-167808250D01*
G75*
G02*
X305405750Y-168027000I-218750J0D01*
G01*
X304968250Y-168027000D01*
G75*
G02*
X304749500Y-167808250I0J218750D01*
G01*
G37*
%TD*%
%TO.C,D8*%
X313920000Y-157774000D03*
X313920000Y-161074000D03*
%TD*%
%TO.C,D7*%
G36*
G01*
X319324500Y-167808250D02*
X319324500Y-167295750D01*
G75*
G02*
X319543250Y-167077000I218750J0D01*
G01*
X319980750Y-167077000D01*
G75*
G02*
X320199500Y-167295750I0J-218750D01*
G01*
X320199500Y-167808250D01*
G75*
G02*
X319980750Y-168027000I-218750J0D01*
G01*
X319543250Y-168027000D01*
G75*
G02*
X319324500Y-167808250I0J218750D01*
G01*
G37*
G36*
G01*
X317749500Y-167808250D02*
X317749500Y-167295750D01*
G75*
G02*
X317968250Y-167077000I218750J0D01*
G01*
X318405750Y-167077000D01*
G75*
G02*
X318624500Y-167295750I0J-218750D01*
G01*
X318624500Y-167808250D01*
G75*
G02*
X318405750Y-168027000I-218750J0D01*
G01*
X317968250Y-168027000D01*
G75*
G02*
X317749500Y-167808250I0J218750D01*
G01*
G37*
%TD*%
%TO.C,D6*%
X326920000Y-157774000D03*
X326920000Y-161074000D03*
%TD*%
%TO.C,D5*%
G36*
G01*
X332324500Y-167808250D02*
X332324500Y-167295750D01*
G75*
G02*
X332543250Y-167077000I218750J0D01*
G01*
X332980750Y-167077000D01*
G75*
G02*
X333199500Y-167295750I0J-218750D01*
G01*
X333199500Y-167808250D01*
G75*
G02*
X332980750Y-168027000I-218750J0D01*
G01*
X332543250Y-168027000D01*
G75*
G02*
X332324500Y-167808250I0J218750D01*
G01*
G37*
G36*
G01*
X330749500Y-167808250D02*
X330749500Y-167295750D01*
G75*
G02*
X330968250Y-167077000I218750J0D01*
G01*
X331405750Y-167077000D01*
G75*
G02*
X331624500Y-167295750I0J-218750D01*
G01*
X331624500Y-167808250D01*
G75*
G02*
X331405750Y-168027000I-218750J0D01*
G01*
X330968250Y-168027000D01*
G75*
G02*
X330749500Y-167808250I0J218750D01*
G01*
G37*
%TD*%
%TO.C,D4*%
X339920000Y-157774000D03*
X339920000Y-161074000D03*
%TD*%
%TO.C,D3*%
G36*
G01*
X345324500Y-167808250D02*
X345324500Y-167295750D01*
G75*
G02*
X345543250Y-167077000I218750J0D01*
G01*
X345980750Y-167077000D01*
G75*
G02*
X346199500Y-167295750I0J-218750D01*
G01*
X346199500Y-167808250D01*
G75*
G02*
X345980750Y-168027000I-218750J0D01*
G01*
X345543250Y-168027000D01*
G75*
G02*
X345324500Y-167808250I0J218750D01*
G01*
G37*
G36*
G01*
X343749500Y-167808250D02*
X343749500Y-167295750D01*
G75*
G02*
X343968250Y-167077000I218750J0D01*
G01*
X344405750Y-167077000D01*
G75*
G02*
X344624500Y-167295750I0J-218750D01*
G01*
X344624500Y-167808250D01*
G75*
G02*
X344405750Y-168027000I-218750J0D01*
G01*
X343968250Y-168027000D01*
G75*
G02*
X343749500Y-167808250I0J218750D01*
G01*
G37*
%TD*%
D14*
%TO.C,F1*%
X213114000Y-184850000D03*
X209714000Y-184850000D03*
X213114000Y-194770000D03*
X209714000Y-194770000D03*
%TD*%
%TO.C,R2*%
G36*
G01*
X205417000Y-185201000D02*
X204867000Y-185201000D01*
G75*
G02*
X204667000Y-185001000I0J200000D01*
G01*
X204667000Y-184601000D01*
G75*
G02*
X204867000Y-184401000I200000J0D01*
G01*
X205417000Y-184401000D01*
G75*
G02*
X205617000Y-184601000I0J-200000D01*
G01*
X205617000Y-185001000D01*
G75*
G02*
X205417000Y-185201000I-200000J0D01*
G01*
G37*
G36*
G01*
X205417000Y-186851000D02*
X204867000Y-186851000D01*
G75*
G02*
X204667000Y-186651000I0J200000D01*
G01*
X204667000Y-186251000D01*
G75*
G02*
X204867000Y-186051000I200000J0D01*
G01*
X205417000Y-186051000D01*
G75*
G02*
X205617000Y-186251000I0J-200000D01*
G01*
X205617000Y-186651000D01*
G75*
G02*
X205417000Y-186851000I-200000J0D01*
G01*
G37*
%TD*%
%TO.C,R1*%
G36*
G01*
X206941000Y-185201000D02*
X206391000Y-185201000D01*
G75*
G02*
X206191000Y-185001000I0J200000D01*
G01*
X206191000Y-184601000D01*
G75*
G02*
X206391000Y-184401000I200000J0D01*
G01*
X206941000Y-184401000D01*
G75*
G02*
X207141000Y-184601000I0J-200000D01*
G01*
X207141000Y-185001000D01*
G75*
G02*
X206941000Y-185201000I-200000J0D01*
G01*
G37*
G36*
G01*
X206941000Y-186851000D02*
X206391000Y-186851000D01*
G75*
G02*
X206191000Y-186651000I0J200000D01*
G01*
X206191000Y-186251000D01*
G75*
G02*
X206391000Y-186051000I200000J0D01*
G01*
X206941000Y-186051000D01*
G75*
G02*
X207141000Y-186251000I0J-200000D01*
G01*
X207141000Y-186651000D01*
G75*
G02*
X206941000Y-186851000I-200000J0D01*
G01*
G37*
%TD*%
D12*
%TO.C,Q1*%
X206650000Y-188928000D03*
X204650000Y-189878000D03*
X204650000Y-187978000D03*
%TD*%
%TO.C,J1*%
G36*
G01*
X220718420Y-183134000D02*
X223718420Y-183134000D01*
G75*
G02*
X225218420Y-184634000I0J-1500000D01*
G01*
X225218420Y-187634000D01*
G75*
G02*
X223718420Y-189134000I-1500000J0D01*
G01*
X220718420Y-189134000D01*
G75*
G02*
X219218420Y-187634000I0J1500000D01*
G01*
X219218420Y-184634000D01*
G75*
G02*
X220718420Y-183134000I1500000J0D01*
G01*
G37*
D13*
X222218420Y-193334000D03*
%TD*%
D16*
%TO.C,D2*%
X206792000Y-182832000D03*
X203492000Y-182832000D03*
%TD*%
%TO.C,D1*%
G36*
G01*
X204123750Y-196390000D02*
X204636250Y-196390000D01*
G75*
G02*
X204855000Y-196608750I0J-218750D01*
G01*
X204855000Y-197046250D01*
G75*
G02*
X204636250Y-197265000I-218750J0D01*
G01*
X204123750Y-197265000D01*
G75*
G02*
X203905000Y-197046250I0J218750D01*
G01*
X203905000Y-196608750D01*
G75*
G02*
X204123750Y-196390000I218750J0D01*
G01*
G37*
G36*
G01*
X204123750Y-194815000D02*
X204636250Y-194815000D01*
G75*
G02*
X204855000Y-195033750I0J-218750D01*
G01*
X204855000Y-195471250D01*
G75*
G02*
X204636250Y-195690000I-218750J0D01*
G01*
X204123750Y-195690000D01*
G75*
G02*
X203905000Y-195471250I0J218750D01*
G01*
X203905000Y-195033750D01*
G75*
G02*
X204123750Y-194815000I218750J0D01*
G01*
G37*
%TD*%
M02*
