%TF.GenerationSoftware,KiCad,Pcbnew,(5.1.7)-1*%
%TF.CreationDate,2020-11-19T07:16:12+01:00*%
%TF.ProjectId,power_distribution_v01,706f7765-725f-4646-9973-747269627574,rev?*%
%TF.SameCoordinates,Original*%
%TF.FileFunction,Profile,NP*%
%FSLAX46Y46*%
G04 Gerber Fmt 4.6, Leading zero omitted, Abs format (unit mm)*
G04 Created by KiCad (PCBNEW (5.1.7)-1) date 2020-11-19 07:16:12*
%MOMM*%
%LPD*%
G01*
G04 APERTURE LIST*
%TA.AperFunction,Profile*%
%ADD10C,0.050000*%
%TD*%
%TA.AperFunction,Profile*%
%ADD11C,0.100000*%
%TD*%
G04 APERTURE END LIST*
D10*
X257500000Y-187500000D02*
G75*
G03*
X257500000Y-187500000I-2500000J0D01*
G01*
X177500000Y-187500000D02*
G75*
G03*
X177500000Y-187500000I-2500000J0D01*
G01*
X344000000Y-72500000D02*
G75*
G02*
X354000000Y-82500000I0J-10000000D01*
G01*
X354000000Y-187500000D02*
G75*
G02*
X334000000Y-207500000I-20000000J0D01*
G01*
X95000000Y-207500000D02*
G75*
G02*
X75000000Y-187500000I0J20000000D01*
G01*
X75000000Y-82500000D02*
G75*
G02*
X85000000Y-72500000I10000000J0D01*
G01*
X97500000Y-102500000D02*
G75*
G03*
X97500000Y-102500000I-2500000J0D01*
G01*
X97500000Y-187500000D02*
G75*
G03*
X97500000Y-187500000I-2500000J0D01*
G01*
X336500000Y-187500000D02*
G75*
G03*
X336500000Y-187500000I-2500000J0D01*
G01*
X336500000Y-102500000D02*
G75*
G03*
X336500000Y-102500000I-2500000J0D01*
G01*
X349500000Y-82500000D02*
G75*
G03*
X349500000Y-82500000I-2000000J0D01*
G01*
X343000000Y-82500000D02*
G75*
G03*
X343000000Y-82500000I-2000000J0D01*
G01*
X336500000Y-82500000D02*
G75*
G03*
X336500000Y-82500000I-2000000J0D01*
G01*
X330000000Y-82500000D02*
G75*
G03*
X330000000Y-82500000I-2000000J0D01*
G01*
X323500000Y-82500000D02*
G75*
G03*
X323500000Y-82500000I-2000000J0D01*
G01*
X317000000Y-82500000D02*
G75*
G03*
X317000000Y-82500000I-2000000J0D01*
G01*
X310500000Y-82500000D02*
G75*
G03*
X310500000Y-82500000I-2000000J0D01*
G01*
X304000000Y-82500000D02*
G75*
G03*
X304000000Y-82500000I-2000000J0D01*
G01*
X297500000Y-82500000D02*
G75*
G03*
X297500000Y-82500000I-2000000J0D01*
G01*
X291000000Y-82500000D02*
G75*
G03*
X291000000Y-82500000I-2000000J0D01*
G01*
X284500000Y-82500000D02*
G75*
G03*
X284500000Y-82500000I-2000000J0D01*
G01*
X278000000Y-82500000D02*
G75*
G03*
X278000000Y-82500000I-2000000J0D01*
G01*
X271500000Y-82500000D02*
G75*
G03*
X271500000Y-82500000I-2000000J0D01*
G01*
X265000000Y-82500000D02*
G75*
G03*
X265000000Y-82500000I-2000000J0D01*
G01*
X258500000Y-82500000D02*
G75*
G03*
X258500000Y-82500000I-2000000J0D01*
G01*
X252000000Y-82500000D02*
G75*
G03*
X252000000Y-82500000I-2000000J0D01*
G01*
X245500000Y-82500000D02*
G75*
G03*
X245500000Y-82500000I-2000000J0D01*
G01*
X239000000Y-82500000D02*
G75*
G03*
X239000000Y-82500000I-2000000J0D01*
G01*
X232500000Y-82500000D02*
G75*
G03*
X232500000Y-82500000I-2000000J0D01*
G01*
X226000000Y-82500000D02*
G75*
G03*
X226000000Y-82500000I-2000000J0D01*
G01*
X219500000Y-82500000D02*
G75*
G03*
X219500000Y-82500000I-2000000J0D01*
G01*
X213000000Y-82500000D02*
G75*
G03*
X213000000Y-82500000I-2000000J0D01*
G01*
X206500000Y-82500000D02*
G75*
G03*
X206500000Y-82500000I-2000000J0D01*
G01*
X200000000Y-82500000D02*
G75*
G03*
X200000000Y-82500000I-2000000J0D01*
G01*
X193500000Y-82500000D02*
G75*
G03*
X193500000Y-82500000I-2000000J0D01*
G01*
X187000000Y-82500000D02*
G75*
G03*
X187000000Y-82500000I-2000000J0D01*
G01*
X180500000Y-82500000D02*
G75*
G03*
X180500000Y-82500000I-2000000J0D01*
G01*
X174000000Y-82500000D02*
G75*
G03*
X174000000Y-82500000I-2000000J0D01*
G01*
X167500000Y-82500000D02*
G75*
G03*
X167500000Y-82500000I-2000000J0D01*
G01*
X161000000Y-82500000D02*
G75*
G03*
X161000000Y-82500000I-2000000J0D01*
G01*
X154500000Y-82500000D02*
G75*
G03*
X154500000Y-82500000I-2000000J0D01*
G01*
X148000000Y-82500000D02*
G75*
G03*
X148000000Y-82500000I-2000000J0D01*
G01*
X141500000Y-82500000D02*
G75*
G03*
X141500000Y-82500000I-2000000J0D01*
G01*
X135000000Y-82500000D02*
G75*
G03*
X135000000Y-82500000I-2000000J0D01*
G01*
X128500000Y-82500000D02*
G75*
G03*
X128500000Y-82500000I-2000000J0D01*
G01*
X122000000Y-82500000D02*
G75*
G03*
X122000000Y-82500000I-2000000J0D01*
G01*
X115500000Y-82500000D02*
G75*
G03*
X115500000Y-82500000I-2000000J0D01*
G01*
X109000000Y-82500000D02*
G75*
G03*
X109000000Y-82500000I-2000000J0D01*
G01*
X102500000Y-82500000D02*
G75*
G03*
X102500000Y-82500000I-2000000J0D01*
G01*
X96000000Y-82500000D02*
G75*
G03*
X96000000Y-82500000I-2000000J0D01*
G01*
X89500000Y-82500000D02*
G75*
G03*
X89500000Y-82500000I-2000000J0D01*
G01*
D11*
X85000000Y-72500000D02*
X344000000Y-72500000D01*
X75000000Y-187500000D02*
X75000000Y-82500000D01*
X334000000Y-207500000D02*
X95000000Y-207500000D01*
X354000000Y-82500000D02*
X354000000Y-187500000D01*
D10*
X83000000Y-82500000D02*
G75*
G03*
X83000000Y-82500000I-2000000J0D01*
G01*
M02*
