M48
; DRILL file {KiCad (5.1.7)-1} date 11/19/20 07:15:56
; FORMAT={3:3/ absolute / metric / suppress leading zeros}
; #@! TF.CreationDate,2020-11-19T07:15:56+01:00
; #@! TF.GenerationSoftware,Kicad,Pcbnew,(5.1.7)-1
FMAT,2
METRIC,TZ
T1C0.400
T2C1.000
T3C1.780
T4C4.500
%
G90
G05
T1
X85063Y-161063
X98063Y-161063
X111063Y-161063
X124063Y-161063
X137063Y-161063
X150063Y-161063
X163063Y-161063
X176063Y-161063
X189063Y-161063
X202063Y-161063
X205142Y-181054
X215063Y-161063
X228063Y-161063
X241063Y-161063
X254063Y-161063
X267063Y-161063
X280063Y-161063
X293063Y-161063
X306063Y-161063
X319063Y-161063
X332063Y-161063
X345063Y-161063
T2
X279650Y-190000
X279650Y-192540
X150000Y-190000
X150000Y-192540
T3
X304378Y-148488
X304378Y-158408
X307778Y-148488
X307778Y-158408
X213378Y-148488
X213378Y-158408
X216778Y-148488
X216778Y-158408
X174378Y-148488
X174378Y-158408
X177778Y-148488
X177778Y-158408
X161378Y-148488
X161378Y-158408
X164778Y-148488
X164778Y-158408
X291378Y-148488
X291378Y-158408
X294778Y-148488
X294778Y-158408
X187378Y-148488
X187378Y-158408
X190778Y-148488
X190778Y-158408
X209714Y-184850
X209714Y-194770
X213114Y-184850
X213114Y-194770
X252378Y-148488
X252378Y-158408
X255778Y-148488
X255778Y-158408
X278378Y-148488
X278378Y-158408
X281778Y-148488
X281778Y-158408
X317378Y-148488
X317378Y-158408
X320778Y-148488
X320778Y-158408
X109378Y-148488
X109378Y-158408
X112778Y-148488
X112778Y-158408
X83378Y-148488
X83378Y-158408
X86778Y-148488
X86778Y-158408
X265378Y-148488
X265378Y-158408
X268778Y-148488
X268778Y-158408
X330378Y-148488
X330378Y-158408
X333778Y-148488
X333778Y-158408
X135378Y-148488
X135378Y-158408
X138778Y-148488
X138778Y-158408
X148378Y-148488
X148378Y-158408
X151778Y-148488
X151778Y-158408
X226378Y-148488
X226378Y-158408
X229778Y-148488
X229778Y-158408
X122378Y-148488
X122378Y-158408
X125778Y-148488
X125778Y-158408
X343378Y-148488
X343378Y-158408
X346778Y-148488
X346778Y-158408
X239378Y-148488
X239378Y-158408
X242778Y-148488
X242778Y-158408
X200378Y-148488
X200378Y-158408
X203778Y-148488
X203778Y-158408
X96378Y-148488
X96378Y-158408
X99778Y-148488
X99778Y-158408
T4
X215000Y-116500
X215000Y-123700
X163000Y-132500
X163000Y-139700
X111000Y-100500
X111000Y-107700
X345000Y-100500
X345000Y-107700
X306000Y-100500
X306000Y-107700
X137000Y-116500
X137000Y-123700
X85000Y-132500
X85000Y-139700
X150000Y-100500
X150000Y-107700
X254000Y-116500
X254000Y-123700
X332000Y-116500
X332000Y-123700
X293000Y-116500
X293000Y-123700
X319000Y-132500
X319000Y-139700
X228000Y-100500
X228000Y-107700
X98000Y-116500
X98000Y-123700
X222218Y-186134
X222218Y-193334
X176000Y-116500
X176000Y-123700
X280000Y-132500
X280000Y-139700
X202000Y-132500
X202000Y-139700
X267000Y-100500
X267000Y-107700
X241000Y-132500
X241000Y-139700
X189000Y-100500
X189000Y-107700
X124000Y-132500
X124000Y-139700
T0
M30
