%TF.GenerationSoftware,KiCad,Pcbnew,(5.1.7)-1*%
%TF.CreationDate,2020-11-19T07:16:12+01:00*%
%TF.ProjectId,power_distribution_v01,706f7765-725f-4646-9973-747269627574,rev?*%
%TF.SameCoordinates,Original*%
%TF.FileFunction,Soldermask,Bot*%
%TF.FilePolarity,Negative*%
%FSLAX46Y46*%
G04 Gerber Fmt 4.6, Leading zero omitted, Abs format (unit mm)*
G04 Created by KiCad (PCBNEW (5.1.7)-1) date 2020-11-19 07:16:12*
%MOMM*%
%LPD*%
G01*
G04 APERTURE LIST*
%ADD10O,1.700000X1.700000*%
%ADD11R,1.700000X1.700000*%
%ADD12C,6.000000*%
%ADD13C,2.780000*%
G04 APERTURE END LIST*
D10*
%TO.C,J102*%
X279650000Y-192540000D03*
D11*
X279650000Y-190000000D03*
%TD*%
D10*
%TO.C,J101*%
X150000000Y-192540000D03*
D11*
X150000000Y-190000000D03*
%TD*%
%TO.C,J22*%
G36*
G01*
X83500000Y-129500000D02*
X86500000Y-129500000D01*
G75*
G02*
X88000000Y-131000000I0J-1500000D01*
G01*
X88000000Y-134000000D01*
G75*
G02*
X86500000Y-135500000I-1500000J0D01*
G01*
X83500000Y-135500000D01*
G75*
G02*
X82000000Y-134000000I0J1500000D01*
G01*
X82000000Y-131000000D01*
G75*
G02*
X83500000Y-129500000I1500000J0D01*
G01*
G37*
D12*
X85000000Y-139700000D03*
%TD*%
%TO.C,J21*%
G36*
G01*
X96500000Y-113500000D02*
X99500000Y-113500000D01*
G75*
G02*
X101000000Y-115000000I0J-1500000D01*
G01*
X101000000Y-118000000D01*
G75*
G02*
X99500000Y-119500000I-1500000J0D01*
G01*
X96500000Y-119500000D01*
G75*
G02*
X95000000Y-118000000I0J1500000D01*
G01*
X95000000Y-115000000D01*
G75*
G02*
X96500000Y-113500000I1500000J0D01*
G01*
G37*
X98000000Y-123700000D03*
%TD*%
%TO.C,J20*%
G36*
G01*
X109500000Y-97500000D02*
X112500000Y-97500000D01*
G75*
G02*
X114000000Y-99000000I0J-1500000D01*
G01*
X114000000Y-102000000D01*
G75*
G02*
X112500000Y-103500000I-1500000J0D01*
G01*
X109500000Y-103500000D01*
G75*
G02*
X108000000Y-102000000I0J1500000D01*
G01*
X108000000Y-99000000D01*
G75*
G02*
X109500000Y-97500000I1500000J0D01*
G01*
G37*
X111000000Y-107700000D03*
%TD*%
%TO.C,J19*%
G36*
G01*
X122500000Y-129500000D02*
X125500000Y-129500000D01*
G75*
G02*
X127000000Y-131000000I0J-1500000D01*
G01*
X127000000Y-134000000D01*
G75*
G02*
X125500000Y-135500000I-1500000J0D01*
G01*
X122500000Y-135500000D01*
G75*
G02*
X121000000Y-134000000I0J1500000D01*
G01*
X121000000Y-131000000D01*
G75*
G02*
X122500000Y-129500000I1500000J0D01*
G01*
G37*
X124000000Y-139700000D03*
%TD*%
%TO.C,J18*%
G36*
G01*
X135500000Y-113500000D02*
X138500000Y-113500000D01*
G75*
G02*
X140000000Y-115000000I0J-1500000D01*
G01*
X140000000Y-118000000D01*
G75*
G02*
X138500000Y-119500000I-1500000J0D01*
G01*
X135500000Y-119500000D01*
G75*
G02*
X134000000Y-118000000I0J1500000D01*
G01*
X134000000Y-115000000D01*
G75*
G02*
X135500000Y-113500000I1500000J0D01*
G01*
G37*
X137000000Y-123700000D03*
%TD*%
%TO.C,J17*%
G36*
G01*
X148500000Y-97500000D02*
X151500000Y-97500000D01*
G75*
G02*
X153000000Y-99000000I0J-1500000D01*
G01*
X153000000Y-102000000D01*
G75*
G02*
X151500000Y-103500000I-1500000J0D01*
G01*
X148500000Y-103500000D01*
G75*
G02*
X147000000Y-102000000I0J1500000D01*
G01*
X147000000Y-99000000D01*
G75*
G02*
X148500000Y-97500000I1500000J0D01*
G01*
G37*
X150000000Y-107700000D03*
%TD*%
%TO.C,J16*%
G36*
G01*
X161500000Y-129500000D02*
X164500000Y-129500000D01*
G75*
G02*
X166000000Y-131000000I0J-1500000D01*
G01*
X166000000Y-134000000D01*
G75*
G02*
X164500000Y-135500000I-1500000J0D01*
G01*
X161500000Y-135500000D01*
G75*
G02*
X160000000Y-134000000I0J1500000D01*
G01*
X160000000Y-131000000D01*
G75*
G02*
X161500000Y-129500000I1500000J0D01*
G01*
G37*
X163000000Y-139700000D03*
%TD*%
%TO.C,J15*%
G36*
G01*
X174500000Y-113500000D02*
X177500000Y-113500000D01*
G75*
G02*
X179000000Y-115000000I0J-1500000D01*
G01*
X179000000Y-118000000D01*
G75*
G02*
X177500000Y-119500000I-1500000J0D01*
G01*
X174500000Y-119500000D01*
G75*
G02*
X173000000Y-118000000I0J1500000D01*
G01*
X173000000Y-115000000D01*
G75*
G02*
X174500000Y-113500000I1500000J0D01*
G01*
G37*
X176000000Y-123700000D03*
%TD*%
%TO.C,J14*%
G36*
G01*
X187500000Y-97500000D02*
X190500000Y-97500000D01*
G75*
G02*
X192000000Y-99000000I0J-1500000D01*
G01*
X192000000Y-102000000D01*
G75*
G02*
X190500000Y-103500000I-1500000J0D01*
G01*
X187500000Y-103500000D01*
G75*
G02*
X186000000Y-102000000I0J1500000D01*
G01*
X186000000Y-99000000D01*
G75*
G02*
X187500000Y-97500000I1500000J0D01*
G01*
G37*
X189000000Y-107700000D03*
%TD*%
%TO.C,J13*%
G36*
G01*
X200500000Y-129500000D02*
X203500000Y-129500000D01*
G75*
G02*
X205000000Y-131000000I0J-1500000D01*
G01*
X205000000Y-134000000D01*
G75*
G02*
X203500000Y-135500000I-1500000J0D01*
G01*
X200500000Y-135500000D01*
G75*
G02*
X199000000Y-134000000I0J1500000D01*
G01*
X199000000Y-131000000D01*
G75*
G02*
X200500000Y-129500000I1500000J0D01*
G01*
G37*
X202000000Y-139700000D03*
%TD*%
%TO.C,J12*%
G36*
G01*
X213500000Y-113500000D02*
X216500000Y-113500000D01*
G75*
G02*
X218000000Y-115000000I0J-1500000D01*
G01*
X218000000Y-118000000D01*
G75*
G02*
X216500000Y-119500000I-1500000J0D01*
G01*
X213500000Y-119500000D01*
G75*
G02*
X212000000Y-118000000I0J1500000D01*
G01*
X212000000Y-115000000D01*
G75*
G02*
X213500000Y-113500000I1500000J0D01*
G01*
G37*
X215000000Y-123700000D03*
%TD*%
%TO.C,J11*%
G36*
G01*
X226500000Y-97500000D02*
X229500000Y-97500000D01*
G75*
G02*
X231000000Y-99000000I0J-1500000D01*
G01*
X231000000Y-102000000D01*
G75*
G02*
X229500000Y-103500000I-1500000J0D01*
G01*
X226500000Y-103500000D01*
G75*
G02*
X225000000Y-102000000I0J1500000D01*
G01*
X225000000Y-99000000D01*
G75*
G02*
X226500000Y-97500000I1500000J0D01*
G01*
G37*
X228000000Y-107700000D03*
%TD*%
%TO.C,J10*%
G36*
G01*
X239500000Y-129500000D02*
X242500000Y-129500000D01*
G75*
G02*
X244000000Y-131000000I0J-1500000D01*
G01*
X244000000Y-134000000D01*
G75*
G02*
X242500000Y-135500000I-1500000J0D01*
G01*
X239500000Y-135500000D01*
G75*
G02*
X238000000Y-134000000I0J1500000D01*
G01*
X238000000Y-131000000D01*
G75*
G02*
X239500000Y-129500000I1500000J0D01*
G01*
G37*
X241000000Y-139700000D03*
%TD*%
%TO.C,J9*%
G36*
G01*
X252500000Y-113500000D02*
X255500000Y-113500000D01*
G75*
G02*
X257000000Y-115000000I0J-1500000D01*
G01*
X257000000Y-118000000D01*
G75*
G02*
X255500000Y-119500000I-1500000J0D01*
G01*
X252500000Y-119500000D01*
G75*
G02*
X251000000Y-118000000I0J1500000D01*
G01*
X251000000Y-115000000D01*
G75*
G02*
X252500000Y-113500000I1500000J0D01*
G01*
G37*
X254000000Y-123700000D03*
%TD*%
%TO.C,J8*%
G36*
G01*
X265500000Y-97500000D02*
X268500000Y-97500000D01*
G75*
G02*
X270000000Y-99000000I0J-1500000D01*
G01*
X270000000Y-102000000D01*
G75*
G02*
X268500000Y-103500000I-1500000J0D01*
G01*
X265500000Y-103500000D01*
G75*
G02*
X264000000Y-102000000I0J1500000D01*
G01*
X264000000Y-99000000D01*
G75*
G02*
X265500000Y-97500000I1500000J0D01*
G01*
G37*
X267000000Y-107700000D03*
%TD*%
%TO.C,J7*%
G36*
G01*
X278500000Y-129500000D02*
X281500000Y-129500000D01*
G75*
G02*
X283000000Y-131000000I0J-1500000D01*
G01*
X283000000Y-134000000D01*
G75*
G02*
X281500000Y-135500000I-1500000J0D01*
G01*
X278500000Y-135500000D01*
G75*
G02*
X277000000Y-134000000I0J1500000D01*
G01*
X277000000Y-131000000D01*
G75*
G02*
X278500000Y-129500000I1500000J0D01*
G01*
G37*
X280000000Y-139700000D03*
%TD*%
%TO.C,J6*%
G36*
G01*
X291500000Y-113500000D02*
X294500000Y-113500000D01*
G75*
G02*
X296000000Y-115000000I0J-1500000D01*
G01*
X296000000Y-118000000D01*
G75*
G02*
X294500000Y-119500000I-1500000J0D01*
G01*
X291500000Y-119500000D01*
G75*
G02*
X290000000Y-118000000I0J1500000D01*
G01*
X290000000Y-115000000D01*
G75*
G02*
X291500000Y-113500000I1500000J0D01*
G01*
G37*
X293000000Y-123700000D03*
%TD*%
%TO.C,J5*%
G36*
G01*
X304500000Y-97500000D02*
X307500000Y-97500000D01*
G75*
G02*
X309000000Y-99000000I0J-1500000D01*
G01*
X309000000Y-102000000D01*
G75*
G02*
X307500000Y-103500000I-1500000J0D01*
G01*
X304500000Y-103500000D01*
G75*
G02*
X303000000Y-102000000I0J1500000D01*
G01*
X303000000Y-99000000D01*
G75*
G02*
X304500000Y-97500000I1500000J0D01*
G01*
G37*
X306000000Y-107700000D03*
%TD*%
%TO.C,J4*%
G36*
G01*
X317500000Y-129500000D02*
X320500000Y-129500000D01*
G75*
G02*
X322000000Y-131000000I0J-1500000D01*
G01*
X322000000Y-134000000D01*
G75*
G02*
X320500000Y-135500000I-1500000J0D01*
G01*
X317500000Y-135500000D01*
G75*
G02*
X316000000Y-134000000I0J1500000D01*
G01*
X316000000Y-131000000D01*
G75*
G02*
X317500000Y-129500000I1500000J0D01*
G01*
G37*
X319000000Y-139700000D03*
%TD*%
%TO.C,J3*%
G36*
G01*
X330500000Y-113500000D02*
X333500000Y-113500000D01*
G75*
G02*
X335000000Y-115000000I0J-1500000D01*
G01*
X335000000Y-118000000D01*
G75*
G02*
X333500000Y-119500000I-1500000J0D01*
G01*
X330500000Y-119500000D01*
G75*
G02*
X329000000Y-118000000I0J1500000D01*
G01*
X329000000Y-115000000D01*
G75*
G02*
X330500000Y-113500000I1500000J0D01*
G01*
G37*
X332000000Y-123700000D03*
%TD*%
%TO.C,J2*%
G36*
G01*
X343500000Y-97500000D02*
X346500000Y-97500000D01*
G75*
G02*
X348000000Y-99000000I0J-1500000D01*
G01*
X348000000Y-102000000D01*
G75*
G02*
X346500000Y-103500000I-1500000J0D01*
G01*
X343500000Y-103500000D01*
G75*
G02*
X342000000Y-102000000I0J1500000D01*
G01*
X342000000Y-99000000D01*
G75*
G02*
X343500000Y-97500000I1500000J0D01*
G01*
G37*
X345000000Y-107700000D03*
%TD*%
D13*
%TO.C,F22*%
X86778000Y-148488000D03*
X83378000Y-148488000D03*
X86778000Y-158408000D03*
X83378000Y-158408000D03*
%TD*%
%TO.C,F21*%
X99778000Y-148488000D03*
X96378000Y-148488000D03*
X99778000Y-158408000D03*
X96378000Y-158408000D03*
%TD*%
%TO.C,F20*%
X112778000Y-148488000D03*
X109378000Y-148488000D03*
X112778000Y-158408000D03*
X109378000Y-158408000D03*
%TD*%
%TO.C,F19*%
X125778000Y-148488000D03*
X122378000Y-148488000D03*
X125778000Y-158408000D03*
X122378000Y-158408000D03*
%TD*%
%TO.C,F18*%
X138778000Y-148488000D03*
X135378000Y-148488000D03*
X138778000Y-158408000D03*
X135378000Y-158408000D03*
%TD*%
%TO.C,F17*%
X151778000Y-148488000D03*
X148378000Y-148488000D03*
X151778000Y-158408000D03*
X148378000Y-158408000D03*
%TD*%
%TO.C,F16*%
X164778000Y-148488000D03*
X161378000Y-148488000D03*
X164778000Y-158408000D03*
X161378000Y-158408000D03*
%TD*%
%TO.C,F15*%
X177778000Y-148488000D03*
X174378000Y-148488000D03*
X177778000Y-158408000D03*
X174378000Y-158408000D03*
%TD*%
%TO.C,F14*%
X190778000Y-148488000D03*
X187378000Y-148488000D03*
X190778000Y-158408000D03*
X187378000Y-158408000D03*
%TD*%
%TO.C,F13*%
X203778000Y-148488000D03*
X200378000Y-148488000D03*
X203778000Y-158408000D03*
X200378000Y-158408000D03*
%TD*%
%TO.C,F12*%
X216778000Y-148488000D03*
X213378000Y-148488000D03*
X216778000Y-158408000D03*
X213378000Y-158408000D03*
%TD*%
%TO.C,F11*%
X229778000Y-148488000D03*
X226378000Y-148488000D03*
X229778000Y-158408000D03*
X226378000Y-158408000D03*
%TD*%
%TO.C,F10*%
X242778000Y-148488000D03*
X239378000Y-148488000D03*
X242778000Y-158408000D03*
X239378000Y-158408000D03*
%TD*%
%TO.C,F9*%
X255778000Y-148488000D03*
X252378000Y-148488000D03*
X255778000Y-158408000D03*
X252378000Y-158408000D03*
%TD*%
%TO.C,F8*%
X268778000Y-148488000D03*
X265378000Y-148488000D03*
X268778000Y-158408000D03*
X265378000Y-158408000D03*
%TD*%
%TO.C,F7*%
X281778000Y-148488000D03*
X278378000Y-148488000D03*
X281778000Y-158408000D03*
X278378000Y-158408000D03*
%TD*%
%TO.C,F6*%
X294778000Y-148488000D03*
X291378000Y-148488000D03*
X294778000Y-158408000D03*
X291378000Y-158408000D03*
%TD*%
%TO.C,F5*%
X307778000Y-148488000D03*
X304378000Y-148488000D03*
X307778000Y-158408000D03*
X304378000Y-158408000D03*
%TD*%
%TO.C,F4*%
X320778000Y-148488000D03*
X317378000Y-148488000D03*
X320778000Y-158408000D03*
X317378000Y-158408000D03*
%TD*%
%TO.C,F3*%
X333778000Y-148488000D03*
X330378000Y-148488000D03*
X333778000Y-158408000D03*
X330378000Y-158408000D03*
%TD*%
%TO.C,F2*%
X346778000Y-148488000D03*
X343378000Y-148488000D03*
X346778000Y-158408000D03*
X343378000Y-158408000D03*
%TD*%
%TO.C,F1*%
X213114000Y-184850000D03*
X209714000Y-184850000D03*
X213114000Y-194770000D03*
X209714000Y-194770000D03*
%TD*%
%TO.C,J1*%
G36*
G01*
X220718420Y-183134000D02*
X223718420Y-183134000D01*
G75*
G02*
X225218420Y-184634000I0J-1500000D01*
G01*
X225218420Y-187634000D01*
G75*
G02*
X223718420Y-189134000I-1500000J0D01*
G01*
X220718420Y-189134000D01*
G75*
G02*
X219218420Y-187634000I0J1500000D01*
G01*
X219218420Y-184634000D01*
G75*
G02*
X220718420Y-183134000I1500000J0D01*
G01*
G37*
D12*
X222218420Y-193334000D03*
%TD*%
M02*
